<svg xmlns="http://www.w3.org/2000/svg" xmlns:xlink="http://www.w3.org/1999/xlink" width="500" zoomAndPan="magnify" viewBox="0 0 375 374.999991" height="500" preserveAspectRatio="xMidYMid meet" version="1.0"><defs><g/><clipPath id="9742abea5c"><path d="M 43 182 L 93 182 L 93 234 L 43 234 Z M 43 182 " clip-rule="nonzero"/></clipPath><clipPath id="b621f4ef0a"><path d="M 37.503906 227.472656 L 44.273438 180.710938 L 94.746094 188.015625 L 87.976562 234.78125 Z M 37.503906 227.472656 " clip-rule="nonzero"/></clipPath><clipPath id="3df23dd632"><path d="M 37.503906 227.472656 L 44.273438 180.710938 L 94.746094 188.015625 L 87.976562 234.78125 Z M 37.503906 227.472656 " clip-rule="nonzero"/></clipPath><clipPath id="d7c0cea463"><path d="M 90.015625 160.566406 L 116.160156 160.566406 L 116.160156 192.816406 L 90.015625 192.816406 Z M 90.015625 160.566406 " clip-rule="nonzero"/></clipPath></defs><path fill="#ffffff" d="M 96.058594 175.761719 L 95.359375 175.070312 L 95.289062 175 C 93.105469 172.738281 93.128906 169.101562 95.359375 166.871094 C 97.585938 164.644531 101.226562 164.621094 103.488281 166.800781 L 103.554688 166.871094 L 104.257812 167.566406 L 106.167969 169.480469 C 108.417969 171.734375 108.417969 175.417969 106.167969 177.679688 C 103.914062 179.929688 100.222656 179.929688 97.96875 177.679688 Z M 57.394531 207.476562 L 48.792969 216.078125 C 46.539062 218.332031 46.539062 222.019531 48.792969 224.277344 C 51.050781 226.53125 54.738281 226.53125 56.988281 224.277344 L 64.136719 217.132812 L 64.914062 216.351562 L 65.59375 215.675781 L 69.691406 211.574219 C 71.941406 209.324219 71.941406 205.636719 69.691406 203.378906 L 65.59375 199.28125 L 64.859375 198.554688 L 56.933594 190.628906 C 54.683594 188.378906 50.996094 188.378906 48.738281 190.628906 C 46.484375 192.882812 46.484375 196.574219 48.738281 198.828125 L 56.664062 206.753906 Z M 105.839844 224.222656 L 105.839844 224.230469 C 103.585938 226.484375 99.894531 226.484375 97.640625 224.230469 L 48.847656 175.425781 C 46.585938 173.175781 46.585938 169.480469 48.847656 167.230469 C 51.097656 164.976562 54.785156 164.976562 57.042969 167.230469 L 105.839844 216.03125 C 108.089844 218.285156 108.089844 221.972656 105.839844 224.222656 Z M 105.910156 200.863281 C 103.65625 203.113281 99.972656 203.113281 97.710938 200.863281 L 92.15625 195.304688 L 72.207031 175.355469 C 69.957031 173.105469 69.957031 169.410156 72.207031 167.160156 C 74.46875 164.90625 78.152344 164.90625 80.40625 167.160156 L 105.910156 192.664062 C 108.160156 194.914062 108.160156 198.609375 105.910156 200.863281 Z M 105.910156 200.863281 " fill-opacity="1" fill-rule="evenodd"/><g clip-path="url(#9742abea5c)"><g clip-path="url(#b621f4ef0a)"><g clip-path="url(#3df23dd632)"><path fill="#ffffff" d="M 84.628906 231.699219 C 84.730469 231.515625 84.859375 231.339844 84.660156 231.121094 C 84.589844 231.039062 84.523438 231.007812 84.414062 231.042969 C 84.136719 231.140625 84.269531 231.398438 84.191406 231.554688 C 84.003906 232.003906 83.945312 232.332031 84.527344 232.476562 C 84.546875 232.480469 84.535156 232.644531 84.53125 232.738281 C 84.460938 232.71875 84.390625 232.707031 84.332031 232.667969 C 83.945312 232.394531 83.582031 232.113281 83.191406 232.703125 C 83.140625 232.789062 82.742188 232.800781 82.714844 232.757812 C 82.414062 231.972656 81.65625 232.675781 81.210938 232.277344 C 80.945312 232.042969 80.566406 232.050781 80.183594 232.253906 C 79.855469 232.425781 79.882812 231.953125 79.714844 231.8125 C 79.328125 231.484375 78.847656 231.332031 78.441406 231.042969 L 78.449219 231.054688 C 78.4375 231.011719 78.421875 230.957031 78.410156 230.914062 C 78.382812 230.953125 78.355469 231 78.328125 231.039062 L 78.339844 231.03125 C 76.855469 230.417969 75.515625 229.578125 74.34375 228.472656 C 73.113281 227.324219 71.855469 226.214844 70.503906 225.195312 C 69.386719 224.355469 68.234375 223.523438 67.390625 222.367188 C 67.199219 222.113281 66.886719 222.035156 66.710938 221.730469 C 66.613281 221.558594 66.285156 221.519531 66.019531 221.679688 C 65.09375 222.246094 64.179688 222.820312 63.21875 223.328125 C 61.808594 224.074219 60.378906 224.804688 58.875 225.347656 C 58.0625 225.632812 57.699219 226.324219 57.402344 227.019531 C 57.261719 227.332031 57.59375 227.421875 57.824219 227.414062 C 58.554688 227.394531 59.230469 227.554688 59.871094 227.898438 C 60.035156 227.984375 60.21875 228.074219 60.214844 228.25 C 60.210938 228.488281 59.988281 228.527344 59.792969 228.5625 C 59.035156 228.683594 58.292969 228.429688 57.535156 228.414062 C 56.453125 228.382812 55.363281 228.421875 54.285156 228.390625 C 53.601562 228.367188 52.90625 228.765625 52.195312 228.859375 C 51.609375 228.941406 51.023438 229.054688 50.40625 228.988281 C 50.25 228.972656 49.898438 228.609375 49.761719 229.113281 C 49.722656 229.242188 49.652344 229.023438 49.617188 228.976562 C 49.152344 228.355469 48.597656 227.941406 47.765625 228 C 47.609375 228.007812 47.46875 227.96875 47.378906 228.164062 C 47.292969 228.328125 47.171875 228.300781 47.078125 228.140625 C 46.863281 227.753906 46.675781 227.339844 46.097656 227.371094 C 45.929688 227.378906 46.027344 227.144531 46 227.023438 C 45.863281 226.390625 45.34375 226.105469 44.820312 225.90625 C 44.492188 225.785156 44.523438 225.644531 44.726562 225.539062 C 45.097656 225.34375 44.957031 225.019531 44.878906 224.832031 C 44.671875 224.320312 44.929688 223.992188 45.207031 223.648438 C 45.308594 223.539062 45.398438 223.40625 45.246094 223.3125 C 44.890625 223.09375 44.945312 222.734375 45.054688 222.480469 C 45.339844 221.867188 45.046875 221.167969 45.398438 220.539062 C 45.523438 220.316406 45.269531 219.90625 45.398438 219.519531 C 45.769531 218.40625 46.554688 217.664062 47.410156 216.921875 C 48.183594 216.265625 48.9375 215.59375 49.164062 214.457031 C 49.410156 213.179688 50.550781 212.71875 51.652344 212.328125 C 52.035156 212.183594 52.394531 211.863281 52.859375 212.042969 C 52.898438 212.058594 53.007812 212.023438 53.011719 211.992188 C 53.15625 211.148438 54.097656 210.972656 54.4375 210.273438 C 54.558594 210.027344 54.976562 209.941406 55.226562 209.738281 C 55.554688 209.472656 55.84375 209.058594 55.824219 208.699219 C 55.804688 208.394531 56.308594 208.082031 55.851562 207.789062 C 55.839844 207.785156 55.863281 207.714844 55.875 207.6875 C 56.148438 207.382812 56.148438 207.246094 55.789062 206.914062 C 55.128906 206.296875 54.46875 205.671875 53.820312 205.042969 C 53.152344 204.417969 52.585938 203.71875 51.960938 203.066406 C 51.492188 202.5625 50.949219 202.117188 50.507812 201.585938 C 50.214844 201.238281 50.375 200.761719 50.132812 200.5625 C 49.9375 200.398438 49.453125 200.878906 49.164062 200.503906 C 48.777344 200 48.09375 199.753906 47.925781 199.054688 C 47.855469 198.75 47.714844 198.691406 47.554688 199.019531 C 47.523438 199.089844 47.402344 199.125 47.324219 199.175781 C 47.316406 199.082031 47.339844 198.980469 47.300781 198.902344 C 47.0625 198.46875 47.140625 197.835938 46.535156 197.644531 C 46.507812 197.617188 46.46875 197.59375 46.441406 197.578125 C 46.453125 197.621094 46.460938 197.652344 46.472656 197.699219 C 46.417969 197.867188 46.492188 198.160156 46.214844 198.128906 C 46.007812 198.109375 45.972656 197.769531 45.734375 197.695312 C 45.695312 197.679688 45.820312 197.53125 45.917969 197.523438 C 46.554688 197.5 46.257812 197.1875 46.128906 196.90625 C 46.007812 196.660156 45.914062 196.679688 45.800781 196.890625 C 45.753906 196.980469 45.730469 197.070312 45.667969 197.144531 C 45.527344 197.339844 45.320312 197.457031 45.074219 197.441406 C 44.917969 197.429688 45.023438 197.289062 45.003906 197.214844 C 44.9375 196.933594 45 196.796875 45.3125 196.726562 C 45.464844 196.6875 45.570312 196.460938 45.695312 196.324219 C 45.546875 196.25 45.410156 196.117188 45.265625 196.105469 C 44.835938 196.0625 44.824219 195.417969 44.324219 195.480469 C 44.261719 195.492188 44.351562 195.378906 44.414062 195.367188 C 44.671875 195.3125 44.691406 195.117188 44.644531 194.921875 C 44.605469 194.707031 44.5 194.566406 44.835938 194.398438 C 45.0625 194.285156 44.800781 194.070312 44.550781 194.0625 L 44.558594 194.074219 C 44.839844 193.523438 44.34375 192.84375 44.882812 192.289062 C 45.078125 192.078125 44.417969 191.324219 44.019531 191.265625 L 44.027344 191.277344 C 44.058594 191.054688 44.21875 191.109375 44.386719 191.101562 C 45.003906 191.097656 45.285156 190.722656 44.953125 190.222656 C 44.652344 189.773438 45.042969 189.519531 45.113281 189.183594 C 45.199219 188.800781 45.695312 188.613281 45.597656 188.066406 C 45.503906 187.5625 45.957031 188.328125 46.007812 187.960938 C 46.054688 187.644531 45.519531 187.878906 45.597656 187.554688 C 45.632812 187.382812 45.792969 187.367188 45.980469 187.433594 C 46.316406 187.554688 46.621094 187.683594 46.679688 187.078125 C 46.710938 186.71875 47.070312 186.445312 47.5 186.363281 C 48.21875 186.226562 48.851562 185.953125 49.050781 185.148438 C 49.097656 184.980469 49.214844 184.964844 49.355469 184.933594 C 49.941406 184.828125 50.53125 184.71875 51.132812 184.742188 C 51.246094 184.746094 51.375 184.796875 51.425781 184.648438 C 51.527344 184.382812 51.832031 183.945312 51.90625 184 C 52.269531 184.238281 52.6875 183.726562 53.035156 184.109375 C 53.261719 184.363281 53.382812 184.097656 53.496094 183.96875 C 53.648438 183.78125 53.851562 183.824219 53.960938 183.921875 C 54.238281 184.160156 53.851562 184.105469 53.796875 184.191406 C 53.628906 184.476562 53.683594 184.539062 53.992188 184.644531 C 54.210938 184.71875 54.28125 185.019531 54.519531 185.179688 C 54.964844 185.472656 55.371094 185.492188 55.824219 185.304688 C 55.914062 185.265625 56.039062 185.171875 56.058594 185.195312 C 56.148438 185.300781 56.003906 185.351562 55.972656 185.433594 C 55.921875 185.550781 55.769531 185.671875 55.878906 185.792969 C 56.011719 185.957031 56.089844 185.6875 56.222656 185.707031 C 56.449219 185.742188 56.714844 185.6875 56.847656 185.933594 C 56.996094 186.195312 56.648438 186.09375 56.621094 186.214844 C 56.585938 186.375 56.515625 186.648438 56.589844 186.699219 C 56.769531 186.828125 56.726562 186.550781 56.820312 186.492188 C 57.070312 186.339844 57.109375 186.566406 57.09375 186.6875 C 56.957031 187.566406 57.949219 187.3125 58.179688 187.804688 C 58.238281 187.761719 58.328125 187.730469 58.355469 187.675781 C 58.492188 187.382812 58.722656 187.445312 58.882812 187.574219 C 59.050781 187.710938 58.996094 187.921875 58.859375 188.089844 C 58.785156 188.171875 58.644531 188.339844 58.714844 188.363281 C 59.246094 188.449219 59.191406 189.171875 59.703125 189.253906 C 59.722656 189.257812 59.742188 189.261719 59.765625 189.253906 C 60.398438 189.199219 59.703125 189.953125 60.0625 189.847656 C 60.53125 189.707031 60.503906 189.839844 60.675781 190.21875 C 60.859375 190.621094 61.179688 190.988281 61.378906 191.414062 C 61.328125 191.417969 61.265625 191.410156 61.324219 191.492188 C 61.347656 191.472656 61.363281 191.445312 61.386719 191.425781 C 61.726562 191.234375 62.003906 191.472656 62.308594 191.550781 L 62.300781 191.539062 C 62.261719 191.65625 62.304688 191.851562 62.101562 191.832031 C 61.964844 191.824219 61.886719 191.445312 61.699219 191.722656 C 61.5 192.015625 61.355469 192.359375 61.246094 192.699219 C 61.207031 192.808594 61.335938 193.003906 61.496094 192.828125 C 61.78125 192.515625 61.996094 192.921875 62.25 192.875 C 62.277344 193.066406 62.589844 193.332031 62.101562 193.40625 C 62.003906 193.421875 62.117188 193.59375 62.195312 193.617188 C 62.871094 193.859375 62.972656 194.449219 63.085938 195.039062 C 63.171875 195.445312 63.335938 195.8125 63.785156 196.015625 C 63.972656 196.09375 64.273438 196.1875 64.085938 196.609375 C 63.960938 196.894531 64.324219 197.050781 64.621094 197.011719 C 64.996094 196.960938 65.199219 197.054688 65.277344 197.460938 C 65.347656 197.835938 66.484375 198.042969 66.890625 197.828125 C 67.46875 197.507812 67.652344 196.804688 68.269531 196.507812 C 68.863281 196.230469 69.414062 195.882812 69.972656 195.535156 C 70.15625 195.425781 70.148438 195.613281 70.238281 195.636719 C 70.332031 195.660156 70.5 195.714844 70.5 195.707031 C 70.722656 194.976562 71.589844 195.238281 72.03125 194.707031 C 72.28125 194.410156 72.792969 194.128906 73.179688 193.832031 C 73.578125 193.535156 74.121094 193.792969 74.5625 193.550781 C 74.65625 193.503906 74.851562 193.582031 74.839844 193.4375 C 74.835938 192.96875 75.195312 192.851562 75.484375 192.59375 C 76.144531 192 76.839844 191.570312 77.761719 191.617188 C 77.925781 191.632812 78.027344 191.523438 78.054688 191.390625 C 78.109375 191.148438 78.195312 191.148438 78.34375 191.339844 C 78.414062 191.421875 78.582031 191.414062 78.59375 191.34375 C 78.632812 190.347656 79.269531 191.078125 79.445312 191.132812 C 80.207031 191.359375 80.949219 191.277344 81.707031 191.210938 C 81.824219 191.195312 81.984375 191.175781 82.019531 191.296875 C 82.140625 191.679688 82.339844 191.8125 82.707031 191.585938 C 82.75 191.558594 82.894531 191.644531 82.894531 191.644531 C 82.636719 192.5625 83.5625 192.21875 83.871094 192.523438 C 84 192.648438 84.273438 192.644531 84.339844 192.894531 C 84.535156 193.621094 85.203125 193.90625 85.699219 194.363281 C 86.234375 194.855469 86.191406 195.570312 86.339844 196.214844 C 86.320312 196.214844 86.308594 196.210938 86.285156 196.21875 C 86.277344 196.21875 86.273438 196.238281 86.273438 196.246094 C 86.296875 196.230469 86.308594 196.210938 86.332031 196.195312 C 86.671875 196.578125 86.554688 197.113281 86.78125 197.5625 C 87.101562 198.222656 87.453125 198.449219 88.214844 198.53125 C 89.476562 198.660156 90.734375 198.613281 91.980469 198.710938 C 92.453125 198.746094 92.792969 199.003906 92.777344 199.472656 C 92.761719 200 92.277344 200.035156 91.898438 199.992188 C 90.597656 199.84375 89.3125 200.074219 88.019531 200.097656 C 87.589844 200.105469 87.25 200.515625 86.773438 200.425781 C 86.660156 200.410156 86.597656 200.628906 86.679688 200.703125 C 86.996094 200.96875 87.082031 201.511719 87.644531 201.511719 C 87.96875 201.507812 88.300781 201.605469 88.625 201.664062 C 89.011719 201.730469 89.207031 201.957031 89.191406 202.351562 C 89.171875 202.773438 88.84375 202.871094 88.527344 202.847656 C 87.84375 202.800781 87.175781 202.828125 86.5 202.867188 C 86.027344 202.890625 85.613281 203.03125 85.339844 203.417969 C 85.21875 203.589844 84.722656 204.058594 85.546875 203.925781 C 85.609375 203.914062 85.734375 203.984375 85.730469 204.015625 C 85.714844 204.191406 85.570312 204.128906 85.460938 204.15625 C 85.136719 204.234375 85.125 204.242188 85.183594 204.480469 C 85.199219 204.523438 85.164062 204.613281 85.144531 204.609375 C 84.15625 204.664062 84.703125 205.367188 84.628906 205.804688 C 84.613281 205.90625 84.875 206.050781 84.617188 206.105469 C 84.464844 206.136719 84.3125 206.050781 84.34375 205.828125 C 84.359375 205.714844 84.414062 205.566406 84.25 205.542969 C 84.125 205.523438 84.015625 205.632812 84 205.746094 C 83.921875 206.421875 83.035156 206.867188 83.46875 207.679688 C 83.488281 207.714844 83.464844 207.785156 83.464844 207.792969 C 82.957031 207.835938 82.742188 208.398438 82.246094 208.441406 C 82.078125 208.457031 82.101562 208.292969 82.027344 208.210938 C 81.949219 208.117188 81.824219 207.898438 81.734375 208.074219 C 81.523438 208.523438 81.121094 208.226562 80.859375 208.375 C 80.324219 208.671875 79.773438 208.957031 79.351562 209.417969 C 78.847656 209.960938 78.390625 210.53125 78.15625 211.265625 C 78.039062 211.667969 77.550781 211.648438 77.222656 211.757812 C 76.828125 211.898438 76.371094 212.15625 76.359375 212.457031 C 76.339844 213.023438 76.140625 213.609375 76.339844 214.183594 C 76.398438 214.347656 76.480469 214.496094 76.457031 214.679688 C 76.328125 215.421875 76.699219 215.933594 77.234375 216.355469 C 77.402344 216.484375 77.410156 216.714844 77.4375 216.832031 C 77.636719 217.683594 78.316406 218.085938 78.910156 218.585938 C 79.421875 219.015625 79.605469 219.6875 79.960938 220.199219 C 80.503906 220.984375 80.8125 221.945312 81.597656 222.570312 C 81.753906 222.699219 81.878906 222.839844 81.878906 223.058594 C 81.878906 223.277344 81.9375 223.453125 82.214844 223.398438 C 82.25 223.394531 82.328125 223.40625 82.328125 223.417969 C 82.371094 224.277344 83.160156 224.078125 83.554688 224.09375 C 84.441406 224.140625 83.949219 224.445312 83.753906 224.71875 C 83.675781 224.832031 83.761719 224.886719 83.78125 224.960938 C 83.984375 226.011719 84.59375 226.914062 84.875 227.933594 C 84.914062 228.074219 85.109375 228.183594 85.226562 228.296875 C 85.28125 228.347656 85.480469 228.425781 85.308594 228.445312 C 84.75 228.507812 85.070312 228.878906 85.027344 229.109375 C 84.980469 229.363281 84.761719 229.644531 85.277344 229.667969 C 85.496094 229.679688 85.351562 229.824219 85.269531 229.875 C 84.84375 230.148438 84.785156 230.484375 84.988281 230.960938 C 85.058594 231.261719 85.242188 231.726562 84.628906 231.699219 Z M 53.054688 184.5625 C 53.070312 184.386719 52.941406 184.410156 52.875 184.367188 C 52.808594 184.328125 52.730469 184.296875 52.695312 184.394531 C 52.660156 184.492188 52.707031 184.59375 52.808594 184.609375 C 52.878906 184.621094 52.96875 184.582031 53.054688 184.5625 Z M 56.5 227.199219 C 56.667969 227.265625 56.734375 227.316406 56.777344 227.304688 C 56.90625 227.28125 57.054688 227.269531 57.136719 227.1875 C 57.1875 227.144531 57.058594 227.09375 56.996094 227.09375 C 56.867188 227.109375 56.75 227.144531 56.5 227.199219 Z M 64.164062 197.164062 C 64.152344 197.171875 64.136719 197.191406 64.117188 197.199219 C 64.144531 197.222656 64.171875 197.238281 64.203125 197.253906 C 64.210938 197.253906 64.226562 197.234375 64.238281 197.214844 C 64.21875 197.203125 64.191406 197.1875 64.164062 197.164062 Z M 48.148438 199.023438 C 48.15625 199.035156 48.164062 199.066406 48.171875 199.070312 C 48.203125 199.0625 48.238281 199.058594 48.257812 199.050781 C 48.25 199.039062 48.242188 199.007812 48.234375 199.003906 C 48.203125 199.011719 48.167969 199.015625 48.148438 199.023438 Z M 45.632812 196.753906 C 45.621094 196.761719 45.597656 196.769531 45.597656 196.777344 C 45.59375 196.789062 45.613281 196.800781 45.621094 196.824219 C 45.632812 196.816406 45.65625 196.808594 45.65625 196.796875 C 45.660156 196.777344 45.640625 196.765625 45.632812 196.753906 Z M 80.007812 209.347656 C 79.835938 209.46875 79.875 209.691406 79.921875 209.886719 C 79.925781 209.917969 79.996094 209.949219 80.03125 209.976562 C 80.207031 209.644531 80.707031 209.769531 80.835938 209.394531 C 80.875 209.261719 80.976562 209.078125 80.6875 209.058594 C 80.457031 209.140625 80.207031 209.207031 80.007812 209.347656 Z M 81.269531 209.277344 C 81.328125 209.515625 81.429688 209.75 81.511719 209.980469 C 81.636719 209.78125 81.808594 209.585938 81.851562 209.375 C 81.863281 209.269531 81.628906 209.113281 81.527344 209.015625 C 81.277344 209 81.246094 209.160156 81.269531 209.277344 Z M 44.347656 188.5625 C 44.238281 188.464844 44.160156 188.566406 44.15625 188.671875 C 44.148438 188.867188 44.101562 189.121094 44.339844 189.199219 C 44.449219 189.234375 44.613281 189.113281 44.808594 189.035156 C 44.628906 188.863281 44.503906 188.699219 44.347656 188.5625 Z M 46.371094 186.835938 C 46.503906 186.613281 46.574219 186.34375 46.683594 186.097656 C 46.714844 186.019531 46.730469 185.917969 46.648438 185.925781 C 46.339844 185.964844 46.363281 186.292969 46.21875 186.449219 C 46.210938 186.632812 46.351562 186.875 46.371094 186.835938 Z M 86.007812 230.523438 C 86.121094 230.324219 86.433594 230.472656 86.46875 230.238281 C 86.488281 230.09375 86.328125 230.039062 86.238281 230.015625 C 86.039062 229.957031 86.003906 230.136719 85.921875 230.261719 C 86.003906 230.335938 85.984375 230.5625 86.007812 230.523438 Z M 84.929688 207.328125 C 84.878906 207.25 84.753906 207.179688 84.75 207.34375 C 84.742188 207.519531 84.832031 207.699219 84.878906 207.875 C 85.007812 207.703125 84.949219 207.320312 85.535156 207.59375 C 85.246094 207.300781 85.039062 207.5 84.929688 207.328125 Z M 55.835938 183.128906 C 56.078125 183.195312 56 182.996094 56.015625 182.894531 C 56.042969 182.785156 56.082031 182.644531 55.90625 182.640625 C 55.707031 182.644531 55.832031 182.871094 55.738281 182.9375 C 55.644531 183.082031 55.746094 183.105469 55.835938 183.128906 Z M 85.839844 207.523438 C 85.78125 207.628906 85.921875 207.660156 85.976562 207.636719 C 86.097656 207.601562 86.328125 207.730469 86.304688 207.464844 C 86.296875 207.378906 86.222656 207.308594 86.089844 207.070312 C 86.125 207.40625 85.910156 207.398438 85.839844 207.523438 Z M 85.644531 231.960938 C 85.539062 231.769531 86.089844 231.691406 85.734375 231.476562 C 85.574219 231.367188 85.5 231.535156 85.429688 231.640625 C 85.246094 231.914062 85.53125 231.894531 85.644531 231.960938 Z M 43.863281 195.070312 C 43.867188 195.121094 43.945312 195.226562 44 195.222656 C 44.15625 195.214844 44.195312 195.074219 44.246094 194.957031 C 44.265625 194.878906 44.234375 194.808594 44.132812 194.804688 C 44.019531 194.871094 43.867188 194.914062 43.863281 195.070312 Z M 61.507812 192.382812 C 61.441406 192.433594 61.582031 192.519531 61.628906 192.492188 C 61.789062 192.390625 62.039062 192.550781 62.132812 192.316406 C 62.167969 192.226562 62.101562 192.1875 62.007812 192.171875 C 61.84375 192.230469 61.648438 192.277344 61.507812 192.382812 Z M 85.285156 204.929688 C 85.136719 204.890625 84.972656 204.875 84.875 205.039062 C 84.804688 205.152344 84.867188 205.226562 84.980469 205.242188 C 85.152344 205.277344 85.265625 205.148438 85.390625 205.0625 C 85.449219 204.957031 85.347656 204.941406 85.285156 204.929688 Z M 53.355469 210.699219 C 53.25 210.652344 53.144531 210.730469 53.160156 210.828125 C 53.179688 210.914062 53.292969 210.992188 53.378906 211.046875 C 53.417969 211.0625 53.5 211 53.542969 210.984375 C 53.558594 210.800781 53.464844 210.746094 53.355469 210.699219 Z M 77.167969 213.21875 C 77.167969 213.289062 77.105469 213.4375 77.277344 213.402344 C 77.375 213.371094 77.46875 213.292969 77.558594 213.242188 C 77.492188 213.191406 77.417969 213.148438 77.371094 213.113281 C 77.222656 213.050781 77.160156 213.113281 77.167969 213.21875 Z M 56.683594 184.898438 C 56.730469 184.949219 56.769531 185.027344 56.828125 185.054688 C 56.925781 185.101562 57.015625 185.0625 57.03125 184.949219 C 57.054688 184.859375 57 184.808594 56.867188 184.789062 C 56.820312 184.816406 56.753906 184.855469 56.683594 184.898438 Z M 83.535156 209.117188 C 83.464844 209.097656 83.347656 209.183594 83.382812 209.21875 C 83.496094 209.308594 83.644531 209.351562 83.792969 209.40625 C 83.824219 209.417969 83.882812 209.375 83.984375 209.316406 C 83.796875 209.238281 83.671875 209.167969 83.535156 209.117188 Z M 44 186.855469 C 44.023438 186.921875 44.078125 186.980469 44.132812 187.023438 C 44.210938 187.0625 44.300781 187.023438 44.289062 186.941406 C 44.28125 186.855469 44.222656 186.773438 44.214844 186.75 C 44.039062 186.726562 43.980469 186.78125 44 186.855469 Z M 45.234375 227.144531 C 45.238281 227.195312 45.308594 227.269531 45.359375 227.277344 C 45.421875 227.296875 45.539062 227.269531 45.554688 227.242188 C 45.582031 227.109375 45.433594 227.128906 45.386719 227.082031 C 45.300781 227.046875 45.21875 227.015625 45.234375 227.144531 Z M 47.203125 185.902344 C 47.28125 185.945312 47.355469 185.925781 47.367188 185.832031 C 47.398438 185.691406 47.328125 185.609375 47.191406 185.609375 C 47.128906 185.609375 47.058594 185.664062 46.960938 185.710938 C 47.0625 185.800781 47.125 185.859375 47.203125 185.902344 Z M 87.128906 208.542969 C 87.179688 208.5625 87.222656 208.597656 87.265625 208.605469 C 87.308594 208.601562 87.34375 208.5625 87.378906 208.539062 C 87.332031 208.511719 87.28125 208.480469 87.214844 208.453125 C 87.191406 208.480469 87.164062 208.507812 87.128906 208.542969 Z M 52.238281 182.703125 C 52.199219 182.699219 52.15625 182.703125 52.117188 182.695312 C 52.191406 182.75 52.265625 182.820312 52.34375 182.863281 C 52.371094 182.878906 52.429688 182.835938 52.472656 182.820312 C 52.441406 182.671875 52.332031 182.71875 52.238281 182.703125 Z M 84.628906 231.699219 C 84.523438 231.714844 84.375 231.726562 84.40625 231.886719 C 84.429688 232.015625 84.546875 231.992188 84.636719 231.953125 C 84.835938 231.855469 84.566406 231.773438 84.628906 231.699219 C 84.621094 231.6875 84.628906 231.699219 84.628906 231.699219 Z M 59.207031 186.910156 C 59.1875 186.910156 59.109375 187 59.117188 187.011719 C 59.152344 187.070312 59.207031 187.121094 59.265625 187.148438 C 59.285156 187.164062 59.335938 187.085938 59.410156 187.023438 C 59.324219 186.96875 59.265625 186.929688 59.207031 186.910156 Z M 85.65625 231.964844 C 85.691406 232.074219 85.519531 232.246094 85.742188 232.289062 C 85.804688 232.296875 85.875 232.234375 85.953125 232.203125 C 85.851562 232.117188 85.75 232.039062 85.65625 231.964844 C 85.644531 231.960938 85.65625 231.964844 85.65625 231.964844 Z M 43.195312 193.355469 C 43.34375 193.398438 43.3125 193.257812 43.324219 193.1875 C 43.332031 193.136719 43.289062 193.066406 43.265625 193.011719 C 43.21875 193.058594 43.179688 193.105469 43.128906 193.160156 C 43.148438 193.234375 43.164062 193.351562 43.195312 193.355469 Z M 43.296875 191.578125 C 43.300781 191.621094 43.34375 191.679688 43.382812 191.707031 C 43.4375 191.746094 43.496094 191.722656 43.464844 191.636719 C 43.453125 191.582031 43.425781 191.535156 43.398438 191.449219 C 43.359375 191.503906 43.300781 191.539062 43.296875 191.578125 Z M 43.019531 189.464844 C 43.054688 189.5 43.078125 189.566406 43.117188 189.582031 C 43.144531 189.597656 43.195312 189.542969 43.230469 189.527344 C 43.191406 189.492188 43.15625 189.453125 43.121094 189.417969 C 43.074219 189.433594 43.050781 189.449219 43.019531 189.464844 Z M 85.753906 206.09375 C 85.710938 206.109375 85.667969 206.164062 85.652344 206.214844 C 85.636719 206.242188 85.683594 206.292969 85.699219 206.335938 C 85.746094 206.289062 85.785156 206.242188 85.832031 206.199219 C 85.785156 206.148438 85.863281 206.046875 85.753906 206.09375 Z M 54.679688 183.765625 C 54.667969 183.785156 54.703125 183.832031 54.71875 183.863281 C 54.765625 183.839844 54.835938 183.839844 54.851562 183.800781 C 54.867188 183.773438 54.835938 183.703125 54.804688 183.628906 C 54.742188 183.691406 54.699219 183.726562 54.679688 183.765625 Z M 85.28125 205.816406 C 85.242188 205.875 85.183594 205.917969 85.164062 205.976562 C 85.148438 206.015625 85.183594 206.074219 85.199219 206.117188 C 85.257812 206.054688 85.328125 206 85.414062 205.917969 C 85.355469 205.878906 85.320312 205.851562 85.28125 205.816406 Z M 43.648438 193.890625 C 43.632812 193.941406 43.65625 193.996094 43.644531 194.058594 C 43.683594 194.019531 43.738281 193.988281 43.765625 193.941406 C 43.792969 193.902344 43.78125 193.847656 43.789062 193.722656 C 43.703125 193.816406 43.65625 193.851562 43.648438 193.890625 Z M 45.382812 186.515625 C 45.363281 186.449219 45.339844 186.382812 45.320312 186.316406 C 45.296875 186.335938 45.261719 186.351562 45.238281 186.367188 C 45.292969 186.417969 45.339844 186.464844 45.382812 186.515625 C 45.394531 186.515625 45.382812 186.515625 45.382812 186.515625 Z M 85.5 209.632812 C 85.53125 209.644531 85.558594 209.679688 85.589844 209.675781 C 85.609375 209.667969 85.636719 209.621094 85.640625 209.597656 C 85.632812 209.578125 85.59375 209.5625 85.566406 209.546875 C 85.539062 209.574219 85.527344 209.601562 85.5 209.632812 Z M 85.957031 203.613281 C 86.007812 203.617188 86.0625 203.59375 86.113281 203.59375 C 86.078125 203.566406 86.042969 203.519531 86 203.515625 C 85.953125 203.496094 85.898438 203.519531 85.792969 203.523438 C 85.867188 203.566406 85.90625 203.605469 85.957031 203.613281 Z M 45.753906 185.621094 C 45.730469 185.554688 45.707031 185.5 45.6875 185.433594 C 45.664062 185.449219 45.640625 185.46875 45.617188 185.484375 C 45.660156 185.535156 45.71875 185.574219 45.753906 185.621094 C 45.765625 185.609375 45.753906 185.621094 45.753906 185.621094 Z M 83.914062 233.046875 C 83.921875 233.066406 83.960938 233.082031 83.992188 233.097656 C 84.003906 233.070312 84.039062 233.042969 84.03125 233.019531 C 84.027344 233 83.984375 232.984375 83.957031 232.957031 C 83.945312 232.988281 83.90625 233.023438 83.914062 233.046875 Z M 58.328125 186.503906 C 58.355469 186.515625 58.390625 186.5625 58.414062 186.558594 C 58.4375 186.550781 58.453125 186.5 58.476562 186.472656 C 58.449219 186.457031 58.421875 186.433594 58.382812 186.417969 C 58.367188 186.445312 58.34375 186.472656 58.328125 186.503906 Z M 85.507812 228.222656 C 85.519531 228.222656 85.554688 228.199219 85.546875 228.1875 C 85.539062 228.152344 85.523438 228.128906 85.507812 228.097656 C 85.484375 228.113281 85.449219 228.128906 85.425781 228.148438 C 85.453125 228.183594 85.480469 228.207031 85.507812 228.222656 Z M 63.882812 194.839844 C 63.886719 194.832031 63.859375 194.796875 63.847656 194.804688 C 63.816406 194.808594 63.792969 194.828125 63.757812 194.84375 C 63.777344 194.867188 63.792969 194.902344 63.808594 194.925781 C 63.84375 194.898438 63.871094 194.871094 63.882812 194.839844 Z M 83.589844 209.800781 C 83.597656 209.824219 83.648438 209.84375 83.675781 209.855469 C 83.691406 209.828125 83.726562 209.792969 83.730469 209.769531 C 83.722656 209.75 83.675781 209.730469 83.644531 209.707031 C 83.621094 209.746094 83.582031 209.78125 83.589844 209.800781 Z M 79.746094 218.355469 C 79.753906 218.375 79.804688 218.402344 79.824219 218.394531 C 79.847656 218.390625 79.875 218.339844 79.878906 218.320312 C 79.871094 218.296875 79.832031 218.28125 79.800781 218.269531 C 79.777344 218.296875 79.742188 218.320312 79.746094 218.355469 Z M 63.585938 223.828125 C 63.589844 223.851562 63.640625 223.878906 63.660156 223.871094 C 63.683594 223.863281 63.710938 223.816406 63.714844 223.796875 C 63.707031 223.773438 63.667969 223.757812 63.636719 223.742188 C 63.613281 223.769531 63.578125 223.808594 63.585938 223.828125 Z M 86.152344 228.097656 C 86.140625 228.117188 86.164062 228.160156 86.167969 228.191406 C 86.214844 228.179688 86.25 228.152344 86.292969 228.136719 C 86.273438 228.113281 86.257812 228.082031 86.242188 228.058594 C 86.207031 228.074219 86.164062 228.078125 86.152344 228.097656 Z M 52.78125 210.855469 C 52.765625 210.882812 52.792969 210.917969 52.796875 210.949219 C 52.832031 210.933594 52.875 210.921875 52.910156 210.894531 C 52.894531 210.871094 52.878906 210.835938 52.859375 210.8125 C 52.835938 210.832031 52.792969 210.835938 52.78125 210.855469 Z M 65.234375 196.453125 C 65.238281 196.433594 65.238281 196.414062 65.253906 196.394531 C 65.222656 196.390625 65.179688 196.394531 65.148438 196.390625 C 65.148438 196.390625 65.148438 196.410156 65.144531 196.421875 C 65.164062 196.433594 65.195312 196.449219 65.234375 196.453125 Z M 85.761719 229.363281 C 85.757812 229.375 85.773438 229.40625 85.785156 229.410156 C 85.816406 229.414062 85.839844 229.394531 85.859375 229.386719 C 85.84375 229.363281 85.828125 229.332031 85.808594 229.308594 C 85.796875 229.328125 85.773438 229.34375 85.761719 229.363281 Z M 43.988281 225.960938 C 44 225.933594 44.015625 225.914062 44.019531 225.882812 C 44.019531 225.875 43.992188 225.847656 43.980469 225.859375 C 43.960938 225.863281 43.9375 225.882812 43.914062 225.890625 C 43.941406 225.914062 43.960938 225.9375 43.988281 225.960938 Z M 81.566406 222.066406 C 81.546875 222.054688 81.503906 222.066406 81.460938 222.070312 C 81.476562 222.105469 81.480469 222.148438 81.496094 222.171875 C 81.515625 222.183594 81.558594 222.167969 81.59375 222.164062 C 81.585938 222.132812 81.585938 222.078125 81.566406 222.066406 Z M 83.425781 208.277344 L 83.386719 208.261719 L 83.382812 208.28125 Z M 62.277344 191.554688 C 62.316406 191.550781 62.359375 191.546875 62.414062 191.542969 C 62.402344 191.53125 62.386719 191.519531 62.375 191.527344 C 62.34375 191.523438 62.308594 191.539062 62.277344 191.554688 C 62.285156 191.554688 62.277344 191.554688 62.277344 191.554688 Z M 53.453125 183.609375 C 53.484375 183.613281 53.503906 183.617188 53.535156 183.628906 C 53.523438 183.617188 53.515625 183.605469 53.496094 183.59375 C 53.488281 183.59375 53.464844 183.601562 53.453125 183.609375 Z M 45.765625 185.609375 C 45.789062 185.65625 45.691406 185.746094 45.820312 185.734375 C 45.804688 185.699219 45.78125 185.65625 45.765625 185.609375 C 45.753906 185.621094 45.765625 185.609375 45.765625 185.609375 Z M 45.394531 186.515625 C 45.429688 186.554688 45.457031 186.585938 45.492188 186.625 C 45.503906 186.617188 45.519531 186.597656 45.53125 186.589844 C 45.480469 186.558594 45.433594 186.53125 45.394531 186.515625 C 45.382812 186.515625 45.394531 186.515625 45.394531 186.515625 Z M 78.453125 231.046875 C 78.410156 231.039062 78.371094 231.035156 78.328125 231.027344 C 78.328125 231.027344 78.339844 231.019531 78.339844 231.019531 C 78.355469 231.054688 78.375 231.085938 78.378906 231.109375 C 78.402344 231.089844 78.429688 231.0625 78.453125 231.046875 Z M 43.988281 191.273438 C 43.976562 191.28125 43.972656 191.300781 43.960938 191.3125 C 43.972656 191.300781 43.984375 191.292969 43.988281 191.273438 C 43.996094 191.285156 43.988281 191.273438 43.988281 191.273438 Z M 44.539062 194.082031 C 44.527344 194.082031 44.507812 194.078125 44.496094 194.085938 C 44.484375 194.085938 44.484375 194.105469 44.480469 194.117188 C 44.496094 194.097656 44.515625 194.089844 44.539062 194.082031 C 44.53125 194.070312 44.539062 194.082031 44.539062 194.082031 Z M 44.539062 194.082031 " fill-opacity="1" fill-rule="nonzero"/></g></g></g><g clip-path="url(#d7c0cea463)"><path fill="#ffffff" d="M 95.558594 164.585938 C 95.5 164.605469 95.449219 164.601562 95.402344 164.546875 C 95.34375 164.484375 95.265625 164.425781 95.210938 164.542969 C 95.164062 164.632812 95.214844 164.683594 95.300781 164.734375 C 95.539062 164.882812 95.550781 164.988281 95.382812 165.207031 C 95.351562 165.25 95.28125 165.269531 95.273438 165.335938 C 95.261719 165.4375 95.300781 165.636719 95.144531 165.386719 C 95.113281 165.335938 95.027344 165.398438 94.972656 165.449219 C 94.847656 165.546875 94.804688 165.484375 94.765625 165.335938 C 94.726562 165.179688 94.757812 165.039062 94.777344 164.894531 C 94.796875 164.753906 94.964844 164.574219 94.609375 164.640625 C 94.441406 164.671875 94.410156 164.625 94.441406 164.851562 C 94.460938 165 94.371094 165.171875 94.53125 165.296875 C 94.546875 165.308594 94.539062 165.367188 94.519531 165.390625 C 94.488281 165.445312 94.417969 165.4375 94.398438 165.410156 C 94.238281 165.199219 93.933594 165.507812 93.785156 165.238281 C 93.773438 165.210938 93.6875 165.246094 93.671875 165.289062 C 93.644531 165.355469 93.695312 165.398438 93.746094 165.429688 C 93.785156 165.449219 93.824219 165.46875 93.863281 165.488281 C 93.832031 165.546875 93.765625 165.527344 93.714844 165.535156 C 93.65625 165.539062 93.597656 165.527344 93.542969 165.535156 C 93.417969 165.546875 93.394531 165.605469 93.484375 165.6875 C 93.695312 165.867188 93.675781 166.144531 93.761719 166.371094 C 93.78125 166.4375 93.707031 166.511719 93.6875 166.472656 C 93.605469 166.308594 93.414062 166.421875 93.328125 166.3125 C 93.195312 166.132812 93.058594 166.050781 92.863281 166.230469 C 92.832031 166.261719 92.800781 166.253906 92.773438 166.230469 C 92.710938 166.171875 92.71875 166.113281 92.78125 166.050781 C 92.8125 166.015625 92.851562 165.964844 92.820312 165.925781 C 92.769531 165.867188 92.71875 165.933594 92.660156 165.945312 C 92.605469 165.960938 92.601562 166.011719 92.570312 166.042969 C 92.441406 166.179688 92.292969 166.308594 92.257812 165.976562 C 92.246094 165.851562 92.128906 165.851562 92.046875 165.824219 C 91.984375 165.804688 91.90625 165.851562 91.878906 165.925781 C 91.855469 165.996094 91.90625 166.042969 91.957031 166.0625 C 92.113281 166.121094 92.207031 166.261719 92.382812 166.292969 C 92.515625 166.320312 92.652344 166.390625 92.632812 166.578125 C 92.679688 166.578125 92.734375 166.566406 92.769531 166.582031 C 92.84375 166.628906 92.761719 166.640625 92.742188 166.667969 C 92.699219 166.726562 92.71875 166.765625 92.761719 166.816406 C 92.792969 166.847656 92.902344 166.835938 92.839844 166.917969 C 92.820312 166.945312 92.730469 166.945312 92.710938 166.925781 C 92.660156 166.859375 92.226562 166.964844 92.601562 166.699219 C 92.632812 166.679688 92.625 166.617188 92.640625 166.570312 C 92.351562 166.566406 92.203125 166.679688 92.183594 166.988281 C 92.164062 167.246094 91.957031 167.242188 91.761719 167.203125 C 91.660156 167.183594 91.5625 167.113281 91.46875 167.183594 C 91.421875 167.214844 91.449219 167.261719 91.46875 167.304688 C 91.53125 167.460938 91.667969 167.371094 91.769531 167.394531 C 91.859375 167.421875 91.925781 167.371094 92.003906 167.351562 C 92.007812 167.335938 92.019531 167.316406 92.027344 167.304688 C 92.039062 167.316406 92.046875 167.332031 92.058594 167.335938 C 92.039062 167.34375 92.027344 167.351562 92.007812 167.355469 C 92.035156 167.425781 92.007812 167.472656 91.9375 167.492188 C 91.878906 167.503906 91.859375 167.550781 91.886719 167.59375 C 91.890625 167.613281 91.949219 167.621094 91.976562 167.613281 C 92.136719 167.550781 92.273438 167.511719 92.304688 167.75 C 92.304688 167.777344 92.34375 167.808594 92.375 167.820312 C 92.441406 167.851562 92.589844 167.710938 92.574219 167.898438 C 92.570312 168 92.453125 168.019531 92.355469 168.046875 C 92.128906 168.105469 92.128906 168.160156 92.292969 168.347656 C 92.414062 168.496094 92.472656 168.621094 92.671875 168.484375 C 92.71875 168.457031 92.828125 168.453125 92.730469 168.542969 C 92.632812 168.632812 92.703125 168.746094 92.632812 168.832031 C 92.523438 168.953125 92.574219 169.039062 92.730469 169.078125 C 92.882812 169.113281 92.957031 169.171875 92.890625 169.371094 C 92.828125 169.589844 92.84375 169.84375 93.078125 170.011719 C 93.121094 170.042969 93.117188 170.054688 93.027344 170.144531 C 92.671875 170.480469 92.671875 170.488281 93.039062 170.820312 C 93.101562 170.878906 93.167969 170.929688 93.136719 171.027344 C 93.101562 171.136719 93 171.125 92.929688 171.097656 C 92.828125 171.058594 92.679688 171.113281 92.710938 171.152344 C 92.828125 171.292969 92.574219 171.492188 92.789062 171.570312 C 93.046875 171.664062 93.109375 171.847656 93.078125 172.089844 C 93.058594 172.214844 93.089844 172.296875 93.230469 172.316406 C 93.425781 172.347656 93.46875 172.445312 93.359375 172.613281 C 93.226562 172.8125 93.265625 172.953125 93.46875 173.113281 C 93.722656 173.308594 93.753906 173.628906 93.785156 173.921875 C 93.800781 174.03125 93.855469 174.03125 93.894531 174.042969 C 94.070312 174.121094 94.238281 174.183594 94.074219 174.421875 C 94.011719 174.511719 94.109375 174.542969 94.148438 174.589844 C 94.546875 175.105469 94.945312 175.613281 95.273438 176.1875 C 95.449219 176.488281 95.730469 176.761719 95.996094 177.011719 C 96.214844 177.21875 96.34375 177.496094 96.535156 177.71875 C 96.820312 178.046875 96.75 178.449219 96.695312 178.820312 C 96.613281 179.425781 96.652344 180.027344 96.671875 180.632812 C 96.691406 181.429688 96.710938 182.234375 96.535156 183.019531 C 96.457031 183.375 96.492188 183.734375 96.535156 184.078125 C 96.613281 184.625 96.535156 185.152344 96.496094 185.695312 C 96.453125 186.351562 96.441406 187.007812 96.53125 187.65625 C 96.574219 187.992188 96.53125 188.316406 96.535156 188.644531 C 96.554688 189.785156 96.644531 190.917969 96.59375 192.058594 C 96.585938 192.207031 96.640625 192.359375 96.671875 192.507812 C 96.710938 192.667969 96.792969 192.796875 96.980469 192.777344 C 97.15625 192.757812 97.269531 192.644531 97.269531 192.46875 C 97.269531 192.089844 97.347656 191.714844 97.347656 191.34375 C 97.347656 190.980469 97.394531 190.613281 97.320312 190.246094 C 97.289062 190.09375 97.335938 189.917969 97.386719 189.765625 C 97.414062 189.6875 97.457031 189.597656 97.4375 189.527344 C 97.226562 188.707031 97.503906 187.890625 97.449219 187.078125 C 97.429688 186.800781 97.457031 186.539062 97.558594 186.28125 C 97.65625 186.035156 97.574219 185.789062 97.578125 185.546875 C 97.585938 185.082031 97.566406 184.613281 97.566406 184.148438 C 97.566406 183.671875 97.449219 183.195312 97.515625 182.71875 C 97.574219 182.304688 97.503906 181.894531 97.535156 181.480469 C 97.59375 180.65625 97.597656 179.824219 97.613281 178.996094 C 97.613281 178.886719 97.625 178.777344 97.753906 178.738281 C 97.894531 178.691406 97.933594 178.75 97.980469 178.898438 C 98.011719 179 98.160156 178.96875 98.242188 178.847656 C 98.3125 178.742188 98.398438 178.726562 98.402344 178.890625 C 98.410156 178.96875 98.4375 179.039062 98.511719 179.058594 C 98.808594 179.117188 98.789062 179.332031 98.816406 179.570312 C 98.878906 180.101562 98.835938 180.636719 98.84375 181.164062 C 98.84375 181.3125 98.894531 181.457031 99.054688 181.496094 C 99.226562 181.539062 99.382812 181.496094 99.484375 181.332031 C 99.5625 181.210938 99.589844 181.070312 99.589844 180.925781 C 99.59375 180.488281 99.601562 180.058594 99.601562 179.621094 C 99.601562 179.464844 99.589844 179.355469 99.828125 179.394531 C 100.046875 179.433594 100.292969 179.324219 100.492188 179.503906 C 100.515625 179.53125 100.546875 179.550781 100.574219 179.503906 C 100.664062 179.304688 100.832031 179.394531 100.933594 179.441406 C 101.226562 179.5625 101.527344 179.394531 101.816406 179.496094 C 101.851562 179.511719 101.886719 179.503906 101.921875 179.492188 C 102.253906 179.363281 102.609375 179.296875 102.957031 179.226562 C 103.035156 179.214844 103.078125 179.164062 103.132812 179.117188 C 103.183594 179.074219 103.253906 178.996094 103.3125 179.035156 C 103.582031 179.234375 103.757812 178.976562 103.96875 178.90625 C 104.046875 178.878906 104.128906 178.800781 104.195312 178.816406 C 104.714844 178.929688 105.050781 178.539062 105.449219 178.34375 C 105.625 178.261719 105.796875 178.230469 105.964844 178.183594 C 106.332031 178.09375 106.480469 177.777344 106.726562 177.558594 C 106.988281 177.3125 107.1875 176.992188 107.519531 176.824219 C 107.761719 176.703125 107.867188 176.464844 108.03125 176.285156 C 108.226562 176.078125 108.425781 175.9375 108.671875 175.800781 C 109.019531 175.605469 109.296875 175.316406 109.40625 174.910156 C 109.417969 174.855469 109.40625 174.769531 109.4375 174.746094 C 109.746094 174.523438 109.746094 174.164062 109.882812 173.867188 C 109.996094 173.609375 110.09375 173.332031 110.253906 173.09375 C 110.304688 173.023438 110.363281 172.964844 110.34375 172.882812 C 110.242188 172.523438 110.460938 172.226562 110.527344 171.898438 C 110.542969 171.808594 110.621094 171.683594 110.492188 171.660156 C 110.203125 171.601562 110.332031 171.441406 110.417969 171.351562 C 110.617188 171.144531 110.621094 171.007812 110.34375 170.878906 C 110.210938 170.816406 110.25 170.765625 110.378906 170.710938 C 110.421875 170.691406 110.578125 170.6875 110.519531 170.648438 C 110.363281 170.546875 110.5625 170.378906 110.429688 170.320312 C 110.09375 170.171875 110.242188 169.882812 110.242188 169.65625 C 110.242188 169.40625 110.191406 169.25 109.945312 169.160156 C 109.867188 169.132812 109.84375 169.082031 109.886719 169.039062 C 110.0625 168.84375 109.976562 168.800781 109.773438 168.714844 C 109.65625 168.671875 109.566406 168.457031 109.535156 168.304688 C 109.40625 167.703125 108.960938 167.242188 108.8125 166.660156 C 108.683594 166.179688 108.289062 165.921875 108.078125 165.539062 C 107.9375 165.28125 107.632812 165.289062 107.542969 165.058594 C 107.425781 164.785156 107.078125 164.785156 106.976562 164.515625 C 106.96875 164.496094 106.914062 164.496094 106.878906 164.484375 C 106.691406 164.433594 106.53125 164.363281 106.660156 164.117188 C 106.6875 164.070312 106.675781 164.019531 106.621094 164.007812 C 106.597656 164 106.539062 164.019531 106.53125 164.039062 C 106.449219 164.328125 106.421875 164.078125 106.351562 164.035156 C 106.164062 163.910156 105.933594 163.878906 105.757812 163.710938 C 105.675781 163.632812 105.574219 163.582031 105.5 163.480469 C 105.335938 163.226562 105.023438 163.175781 104.773438 163.042969 C 104.5625 162.925781 104.414062 162.789062 104.328125 162.570312 C 104.285156 162.449219 104.195312 162.398438 104.148438 162.527344 C 104.058594 162.789062 103.859375 162.667969 103.703125 162.6875 C 103.589844 162.699219 103.472656 162.570312 103.34375 162.660156 C 103.324219 162.675781 103.28125 162.640625 103.246094 162.636719 C 103.09375 162.585938 103.324219 162.4375 103.207031 162.421875 C 103.136719 162.417969 103.144531 162.609375 103.007812 162.636719 C 102.777344 162.679688 102.570312 162.597656 102.371094 162.511719 C 102.191406 162.4375 102.015625 162.460938 101.921875 162.628906 C 101.722656 163.003906 101.484375 163.097656 101.019531 162.988281 C 100.933594 162.96875 100.890625 163.023438 100.820312 163.042969 C 100.664062 163.085938 100.523438 163.183594 100.476562 162.894531 C 100.453125 162.71875 100.304688 162.804688 100.234375 162.925781 C 100.199219 162.976562 100.238281 163.203125 100.109375 162.964844 C 100.054688 162.847656 99.960938 162.886719 99.871094 162.9375 C 99.777344 162.996094 99.796875 163.066406 99.847656 163.144531 C 99.949219 163.300781 99.949219 163.390625 99.722656 163.335938 C 99.667969 163.324219 99.59375 163.304688 99.59375 163.402344 C 99.609375 163.660156 99.402344 163.570312 99.34375 163.523438 C 99.203125 163.410156 98.945312 163.453125 98.886719 163.214844 C 98.875 163.171875 98.808594 163.164062 98.765625 163.183594 C 98.699219 163.214844 98.75 163.261719 98.765625 163.300781 C 98.867188 163.570312 98.808594 163.761719 98.566406 163.871094 C 98.4375 163.929688 98.417969 164.273438 98.203125 164.046875 C 98.074219 163.910156 97.925781 163.859375 97.78125 163.800781 C 97.59375 163.738281 97.625 163.621094 97.644531 163.492188 C 97.652344 163.464844 97.667969 163.421875 97.695312 163.414062 C 97.742188 163.402344 97.746094 163.453125 97.761719 163.480469 C 97.785156 163.53125 97.785156 163.660156 97.882812 163.542969 C 97.933594 163.484375 98.050781 163.402344 97.921875 163.320312 C 97.863281 163.28125 97.796875 163.203125 97.753906 163.203125 C 97.574219 163.222656 97.515625 163.152344 97.507812 162.976562 C 97.507812 162.914062 97.417969 162.867188 97.339844 162.894531 C 97.269531 162.917969 97.21875 162.976562 97.199219 163.042969 C 97.167969 163.132812 97.230469 163.183594 97.300781 163.191406 C 97.445312 163.203125 97.476562 163.292969 97.515625 163.410156 C 97.59375 163.613281 97.394531 163.5625 97.328125 163.632812 C 97.25 163.710938 97.21875 163.769531 97.277344 163.878906 C 97.335938 163.988281 97.386719 163.96875 97.464844 163.898438 C 97.558594 163.8125 97.636719 163.929688 97.722656 163.9375 C 97.761719 163.941406 97.792969 163.960938 97.78125 164.007812 C 97.765625 164.050781 97.734375 164.046875 97.695312 164.046875 C 97.523438 164.035156 97.484375 164.136719 97.425781 164.292969 C 97.367188 164.457031 97.21875 164.625 96.988281 164.554688 C 96.761719 164.492188 96.722656 164.773438 96.535156 164.769531 C 96.523438 164.820312 96.535156 164.878906 96.457031 164.882812 C 96.453125 164.882812 96.433594 164.871094 96.433594 164.863281 C 96.433594 164.800781 96.484375 164.78125 96.535156 164.773438 C 96.515625 164.625 96.585938 164.535156 96.710938 164.464844 C 96.832031 164.394531 96.910156 164.277344 96.863281 164.144531 C 96.824219 164.035156 96.734375 163.960938 96.59375 163.898438 C 96.382812 163.808594 96.394531 163.898438 96.355469 164.019531 C 96.335938 164.085938 96.296875 164.148438 96.277344 164.214844 C 96.203125 164.425781 96.097656 164.464844 95.917969 164.328125 C 95.777344 164.226562 95.667969 164.078125 95.460938 164.070312 C 95.324219 164.066406 95.285156 163.96875 95.394531 163.851562 C 95.441406 163.808594 95.449219 163.742188 95.359375 163.722656 C 95.292969 163.710938 95.222656 163.742188 95.234375 163.808594 C 95.273438 164.015625 95.0625 164.328125 95.480469 164.382812 C 95.550781 164.425781 95.582031 164.511719 95.558594 164.585938 C 95.613281 164.566406 95.667969 164.574219 95.691406 164.644531 C 95.707031 164.683594 95.6875 164.714844 95.648438 164.710938 C 95.570312 164.703125 95.558594 164.644531 95.558594 164.585938 Z M 94.289062 165.585938 C 94.289062 165.578125 94.289062 165.566406 94.292969 165.558594 C 94.292969 165.554688 94.308594 165.554688 94.3125 165.554688 C 94.300781 165.558594 94.289062 165.566406 94.289062 165.585938 C 94.257812 165.703125 94.300781 165.8125 94.328125 165.925781 C 94.339844 165.992188 94.308594 166.050781 94.242188 166.0625 C 94.203125 166.070312 94.140625 166.0625 94.113281 166.035156 C 94.003906 165.921875 94.109375 165.792969 94.101562 165.667969 C 94.09375 165.539062 94.203125 165.578125 94.289062 165.585938 Z M 94.714844 165.675781 C 94.71875 165.605469 94.757812 165.585938 94.804688 165.585938 C 94.894531 165.585938 94.90625 165.65625 94.90625 165.726562 C 94.90625 165.773438 94.898438 165.816406 94.828125 165.796875 C 94.765625 165.773438 94.699219 165.753906 94.714844 165.675781 Z M 92.222656 167.222656 C 92.234375 167.15625 92.265625 167.097656 92.335938 167.078125 C 92.402344 167.058594 92.40625 167.105469 92.386719 167.15625 C 92.363281 167.222656 92.421875 167.335938 92.292969 167.332031 C 92.242188 167.335938 92.222656 167.285156 92.222656 167.222656 Z M 93.449219 166.675781 C 93.449219 166.617188 93.464844 166.566406 93.523438 166.546875 C 93.527344 166.546875 93.554688 166.578125 93.554688 166.582031 C 93.527344 166.628906 93.503906 166.675781 93.46875 166.71875 C 93.464844 166.707031 93.457031 166.6875 93.449219 166.675781 Z M 92.820312 167.445312 C 92.792969 167.445312 92.75 167.480469 92.75 167.421875 C 92.75 167.363281 92.792969 167.355469 92.839844 167.355469 C 92.871094 167.355469 92.910156 167.371094 92.910156 167.410156 C 92.917969 167.484375 92.851562 167.433594 92.820312 167.445312 Z M 107.570312 188.316406 C 107.609375 189.199219 107.652344 190.074219 107.511719 190.949219 C 107.480469 191.160156 107.550781 191.34375 107.78125 191.367188 C 108.011719 191.394531 108.046875 191.195312 108.105469 191.019531 C 108.277344 190.464844 108.257812 189.894531 108.234375 189.324219 C 108.214844 188.976562 108.375 188.695312 108.472656 188.390625 C 108.515625 188.261719 108.613281 188.152344 108.820312 188.257812 C 109.167969 188.429688 109.574219 188.371094 109.9375 188.496094 C 110.222656 188.59375 110.539062 188.734375 110.847656 188.535156 C 111.222656 188.714844 111.484375 188.527344 111.730469 188.269531 C 111.742188 188.257812 111.769531 188.242188 111.792969 188.242188 C 112.046875 188.207031 112.128906 188.167969 112.347656 187.949219 C 112.386719 187.910156 112.417969 187.890625 112.46875 187.914062 C 112.652344 188.003906 112.636719 187.863281 112.636719 187.761719 C 112.644531 187.59375 112.671875 187.453125 112.890625 187.464844 C 112.980469 187.472656 113.042969 187.433594 113.0625 187.328125 C 113.074219 187.265625 113.128906 187.15625 113.179688 187.175781 C 113.449219 187.265625 113.5 187.226562 113.3125 186.988281 C 113.289062 186.957031 113.300781 186.917969 113.339844 186.910156 C 113.371094 186.90625 113.429688 186.921875 113.429688 186.9375 C 113.457031 187.335938 113.714844 187.050781 113.863281 187.078125 C 113.894531 187.085938 113.964844 187.117188 113.964844 187.039062 C 113.964844 187.015625 113.925781 186.976562 113.894531 186.96875 C 113.789062 186.949219 113.757812 186.910156 113.796875 186.800781 C 113.828125 186.703125 113.875 186.574219 113.964844 186.613281 C 114.300781 186.742188 114.261719 186.441406 114.242188 186.335938 C 114.191406 186.074219 114.3125 185.808594 114.203125 185.539062 C 114.140625 185.382812 114.125 185.210938 114.023438 185.054688 C 113.90625 184.886719 113.996094 184.722656 114.175781 184.726562 C 114.265625 184.734375 114.34375 184.765625 114.371094 184.648438 C 114.394531 184.535156 114.339844 184.46875 114.222656 184.46875 C 114.171875 184.46875 114.121094 184.449219 114.125 184.398438 C 114.132812 184.339844 114.191406 184.347656 114.234375 184.359375 C 114.253906 184.367188 114.292969 184.375 114.300781 184.359375 C 114.359375 184.25 114.570312 184.320312 114.5625 184.179688 C 114.558594 184.082031 114.402344 184.0625 114.320312 184.019531 C 114.054688 183.871094 114.027344 183.703125 114.273438 183.496094 C 114.378906 183.414062 114.351562 183.199219 114.230469 183.15625 C 114.152344 183.128906 114.121094 183.175781 114.121094 183.246094 C 114.113281 183.328125 114.144531 183.414062 114.09375 183.484375 C 114.054688 183.535156 114.046875 183.671875 114.011719 183.644531 C 113.933594 183.59375 113.765625 183.601562 113.777344 183.472656 C 113.789062 183.335938 113.675781 183.167969 113.867188 183.070312 C 113.765625 182.96875 113.578125 182.929688 113.550781 182.78125 C 113.507812 182.550781 113.5 182.339844 113.171875 182.394531 C 113.128906 182.402344 113.160156 182.300781 113.167969 182.242188 C 113.191406 182.066406 113.179688 181.933594 112.980469 181.847656 C 112.8125 181.785156 112.703125 181.171875 112.824219 181.035156 C 112.902344 180.945312 112.863281 180.683594 113.121094 180.804688 C 113.140625 180.8125 113.199219 180.753906 113.191406 180.695312 C 113.183594 180.625 113.121094 180.574219 113.070312 180.605469 C 112.945312 180.675781 112.785156 180.644531 112.691406 180.8125 C 112.613281 180.945312 112.457031 181.003906 112.417969 180.734375 C 112.375 180.464844 112.175781 180.277344 111.980469 180.097656 C 111.863281 179.992188 111.742188 179.902344 111.789062 179.710938 C 111.800781 179.664062 111.800781 179.464844 111.640625 179.625 C 111.574219 179.691406 111.503906 179.660156 111.460938 179.601562 C 111.226562 179.3125 110.875 179.195312 110.589844 178.980469 C 110.230469 178.71875 109.8125 178.699219 109.40625 178.667969 C 109.296875 178.660156 109.230469 178.542969 109.101562 178.589844 C 109.039062 178.613281 108.929688 178.511719 108.894531 178.667969 C 108.875 178.757812 108.800781 178.757812 108.730469 178.757812 C 108.515625 178.769531 108.328125 178.820312 108.136719 178.925781 C 107.988281 179.007812 107.769531 178.957031 107.589844 179 C 107.195312 179.097656 106.828125 179.285156 106.488281 179.503906 C 106.351562 179.59375 106.242188 179.753906 106.132812 179.882812 C 105.628906 180.464844 105.261719 181.121094 104.992188 181.835938 C 104.953125 181.933594 105.003906 182.015625 105.003906 182.113281 C 105.003906 182.832031 105.128906 183.542969 105.238281 184.257812 C 105.269531 184.464844 105.410156 184.664062 105.308594 184.882812 C 105.609375 185.132812 105.554688 185.546875 105.734375 185.855469 C 105.933594 186.191406 106.101562 186.539062 106.0625 186.941406 C 106.054688 187.015625 106.074219 187.085938 106.09375 187.148438 C 106.183594 187.425781 106.339844 187.476562 106.5625 187.296875 C 106.621094 187.253906 106.679688 187.207031 106.71875 187.148438 C 106.816406 186.980469 106.898438 186.847656 107.132812 186.957031 C 107.351562 187.058594 107.574219 187.144531 107.582031 187.425781 C 107.574219 187.730469 107.570312 188.019531 107.570312 188.316406 Z M 112.5625 181.050781 L 112.582031 181.035156 L 112.582031 181.054688 Z M 98.679688 162.070312 C 98.550781 162.210938 98.605469 162.390625 98.570312 162.550781 C 98.558594 162.621094 98.4375 162.695312 98.378906 162.605469 C 98.3125 162.5 98.128906 162.570312 98.128906 162.410156 C 98.128906 162.390625 98.171875 162.347656 98.199219 162.347656 C 98.402344 162.359375 98.496094 162.253906 98.511719 162.0625 C 98.519531 162.011719 98.566406 161.992188 98.617188 162 C 98.660156 162.003906 98.699219 162.050781 98.679688 162.070312 Z M 90.316406 168.144531 C 90.28125 168.128906 90.296875 168.070312 90.328125 168.050781 C 90.429688 168 90.457031 168.117188 90.527344 168.148438 C 90.554688 168.160156 90.597656 168.160156 90.625 168.144531 C 90.808594 168.03125 90.753906 168.207031 90.757812 168.269531 C 90.777344 168.382812 90.71875 168.453125 90.546875 168.445312 C 90.386719 168.464844 90.457031 168.207031 90.316406 168.144531 Z M 96.054688 163.320312 C 95.6875 163.421875 95.671875 163.449219 95.789062 163.742188 C 95.828125 163.839844 95.867188 163.90625 95.988281 163.867188 C 96.105469 163.828125 96.195312 163.757812 96.128906 163.640625 C 96.066406 163.53125 96.097656 163.414062 96.054688 163.320312 Z M 95.847656 163.621094 C 95.898438 163.609375 95.929688 163.59375 95.964844 163.59375 C 96.007812 163.59375 96.058594 163.609375 96.058594 163.667969 C 96.058594 163.738281 96.015625 163.738281 95.96875 163.710938 C 95.929688 163.6875 95.898438 163.652344 95.847656 163.621094 Z M 111.1875 167.789062 C 111.167969 167.777344 111.207031 167.738281 111.246094 167.71875 C 111.363281 167.664062 111.660156 167.828125 111.652344 167.949219 C 111.652344 168.046875 111.589844 168.097656 111.460938 168.089844 C 111.371094 168.007812 111.316406 167.859375 111.1875 167.789062 Z M 115.335938 187.265625 C 115.40625 187.296875 115.382812 187.382812 115.316406 187.394531 C 115.207031 187.417969 115.175781 187.511719 115.128906 187.582031 C 115.097656 187.632812 115.039062 187.664062 114.976562 187.632812 C 114.949219 187.621094 114.917969 187.585938 114.917969 187.554688 C 114.910156 187.492188 114.957031 187.4375 115.015625 187.433594 C 115.238281 187.417969 115.253906 187.328125 115.125 187.167969 C 115.097656 187.136719 115.085938 187.078125 115.164062 187.058594 C 115.253906 187.097656 115.238281 187.21875 115.335938 187.265625 Z M 90.746094 164.457031 C 90.71875 164.402344 90.734375 164.34375 90.777344 164.304688 C 90.816406 164.265625 90.875 164.214844 90.925781 164.277344 C 91.015625 164.386719 91.105469 164.402344 91.214844 164.304688 C 91.253906 164.273438 91.304688 164.304688 91.3125 164.363281 C 91.3125 164.382812 91.285156 164.414062 91.28125 164.414062 C 91.113281 164.355469 90.984375 164.445312 90.882812 164.535156 C 90.804688 164.53125 90.765625 164.503906 90.746094 164.457031 Z M 112 165.199219 C 111.921875 165.050781 112.136719 165.082031 112.160156 164.980469 C 112.175781 164.921875 112.230469 164.882812 112.296875 164.929688 C 112.355469 164.972656 112.347656 165.03125 112.285156 165.070312 C 112.195312 165.121094 112.128906 165.179688 112.207031 165.289062 C 112.25 165.355469 112.207031 165.359375 112.148438 165.375 C 112.039062 165.367188 112.03125 165.257812 112 165.199219 Z M 93.21875 162.675781 C 93.121094 162.570312 93.027344 162.492188 92.902344 162.65625 C 92.851562 162.726562 92.78125 162.695312 92.742188 162.609375 C 92.699219 162.527344 92.730469 162.480469 92.8125 162.449219 C 92.992188 162.378906 93.175781 162.476562 93.21875 162.675781 Z M 114.5 180.128906 C 114.5625 180.148438 114.582031 180.210938 114.570312 180.269531 C 114.542969 180.359375 114.472656 180.429688 114.390625 180.367188 C 114.300781 180.296875 114.222656 180.210938 114.152344 180.230469 C 114.253906 180.320312 114.34375 180.078125 114.5 180.128906 Z M 98.339844 161.695312 C 98.359375 161.648438 98.359375 161.597656 98.390625 161.574219 C 98.476562 161.496094 98.558594 161.515625 98.628906 161.59375 C 98.660156 161.625 98.6875 161.664062 98.738281 161.664062 C 98.785156 161.664062 98.875 161.617188 98.808594 161.726562 C 98.789062 161.765625 98.738281 161.816406 98.707031 161.777344 C 98.660156 161.722656 98.636719 161.65625 98.550781 161.726562 C 98.480469 161.753906 98.410156 161.726562 98.339844 161.695312 Z M 91.453125 168.40625 C 91.269531 168.414062 91.382812 168.21875 91.28125 168.148438 C 91.175781 168.078125 91.25 167.886719 91.28125 167.867188 C 91.390625 167.800781 91.429688 167.960938 91.519531 168 C 91.601562 168.03125 91.601562 168.105469 91.523438 168.160156 C 91.429688 168.226562 91.433594 168.316406 91.453125 168.40625 Z M 91.414062 166.898438 C 91.414062 167.023438 91.292969 167.074219 91.210938 167.132812 C 91.152344 167.171875 91.0625 167.132812 91.046875 167.046875 C 91.015625 166.855469 91.183594 166.914062 91.25 166.886719 C 91.332031 166.847656 91.414062 166.820312 91.414062 166.898438 Z M 91.460938 166.105469 C 91.429688 165.953125 91.570312 165.914062 91.660156 165.875 C 91.746094 165.84375 91.808594 165.925781 91.796875 166.023438 C 91.78125 166.191406 91.5625 166.101562 91.519531 166.230469 C 91.421875 166.230469 91.472656 166.152344 91.460938 166.105469 Z M 110.964844 171.515625 C 110.996094 171.613281 110.996094 171.738281 110.839844 171.753906 C 110.757812 171.769531 110.6875 171.722656 110.691406 171.644531 C 110.707031 171.515625 110.757812 171.390625 110.789062 171.246094 C 110.945312 171.296875 110.9375 171.425781 110.964844 171.515625 Z M 90.160156 167.335938 C 90.203125 167.332031 90.257812 167.375 90.242188 167.425781 C 90.21875 167.539062 90.058594 167.554688 90.050781 167.691406 C 90 167.679688 90.039062 167.640625 90.03125 167.59375 C 90.199219 167.574219 89.960938 167.351562 90.160156 167.335938 Z M 111.195312 171.671875 C 111.242188 171.679688 111.285156 171.691406 111.332031 171.691406 C 111.421875 171.691406 111.503906 171.722656 111.5 171.828125 C 111.492188 171.910156 111.425781 171.988281 111.34375 171.988281 C 111.242188 171.980469 111.242188 171.882812 111.234375 171.800781 C 111.222656 171.753906 111.207031 171.710938 111.195312 171.671875 Z M 98.789062 161.328125 C 98.785156 161.265625 98.828125 161.226562 98.894531 161.21875 C 98.972656 161.21875 99.027344 161.257812 99.035156 161.335938 C 99.046875 161.429688 98.972656 161.445312 98.90625 161.46875 C 98.824219 161.464844 98.796875 161.394531 98.789062 161.328125 Z M 90.863281 167.222656 C 90.894531 167.1875 90.957031 167.1875 90.984375 167.226562 C 91.0625 167.34375 90.90625 167.335938 90.882812 167.402344 C 90.875 167.421875 90.875 167.445312 90.875 167.472656 C 90.875 167.53125 90.882812 167.601562 90.796875 167.59375 C 90.6875 167.589844 90.707031 167.480469 90.675781 167.410156 C 90.667969 167.28125 90.804688 167.285156 90.863281 167.222656 Z M 93.464844 162.628906 C 93.386719 162.628906 93.339844 162.570312 93.339844 162.492188 C 93.339844 162.4375 93.386719 162.390625 93.445312 162.378906 C 93.535156 162.367188 93.566406 162.421875 93.578125 162.492188 C 93.585938 162.578125 93.542969 162.636719 93.464844 162.628906 Z M 91.996094 165.375 C 92.074219 165.359375 92.113281 165.1875 92.222656 165.316406 C 92.273438 165.375 92.351562 165.476562 92.304688 165.519531 C 92.234375 165.59375 92.1875 165.449219 92.113281 165.4375 C 92.039062 165.425781 92.015625 165.484375 91.964844 165.496094 C 91.917969 165.5 91.898438 165.484375 91.898438 165.445312 C 91.898438 165.375 91.957031 165.378906 91.996094 165.375 Z M 93.84375 164.605469 C 93.910156 164.566406 94 164.613281 93.992188 164.695312 C 93.984375 164.871094 93.804688 164.84375 93.707031 164.910156 C 93.65625 164.941406 93.59375 164.933594 93.574219 164.84375 C 93.597656 164.695312 93.742188 164.671875 93.84375 164.605469 Z M 91.949219 168.84375 C 92.003906 168.746094 92.066406 168.5625 92.148438 168.605469 C 92.292969 168.683594 92.148438 168.804688 92.085938 168.890625 C 92.039062 168.949219 92.035156 169.019531 92.007812 169.082031 C 92.003906 169.097656 91.96875 169.109375 91.949219 169.109375 C 91.910156 169.109375 91.886719 169.082031 91.890625 169.019531 C 91.945312 168.980469 91.917969 168.894531 91.949219 168.84375 Z M 112.316406 189.183594 C 112.417969 189.199219 112.5625 189.234375 112.535156 189.300781 C 112.488281 189.421875 112.296875 189.203125 112.21875 189.378906 C 112.207031 189.398438 112.160156 189.371094 112.160156 189.320312 C 112.1875 189.253906 112.195312 189.171875 112.316406 189.183594 Z M 92.226562 163.808594 C 92.164062 164.085938 92.007812 163.8125 91.90625 163.851562 C 91.890625 163.859375 91.761719 163.886719 91.808594 163.78125 C 91.828125 163.738281 91.886719 163.679688 91.949219 163.710938 C 92.039062 163.757812 92.113281 163.839844 92.226562 163.808594 Z M 114.0625 187.832031 C 114.011719 187.921875 113.953125 188.019531 113.84375 188.039062 C 113.773438 188.050781 113.738281 187.992188 113.746094 187.929688 C 113.753906 187.765625 113.90625 187.832031 113.984375 187.765625 C 114.035156 187.753906 114.09375 187.78125 114.0625 187.832031 Z M 114.996094 185.351562 C 115.015625 185.480469 114.890625 185.429688 114.820312 185.449219 C 114.730469 185.472656 114.648438 185.441406 114.628906 185.359375 C 114.601562 185.253906 114.707031 185.273438 114.769531 185.261719 C 114.847656 185.28125 114.976562 185.230469 114.996094 185.351562 Z M 96.535156 161.398438 C 96.53125 161.476562 96.496094 161.535156 96.40625 161.515625 C 96.335938 161.503906 96.285156 161.449219 96.292969 161.367188 C 96.296875 161.285156 96.34375 161.246094 96.425781 161.246094 C 96.496094 161.269531 96.542969 161.316406 96.535156 161.398438 Z M 113.957031 182.742188 C 113.957031 182.667969 114.011719 182.601562 114.082031 182.59375 C 114.175781 182.589844 114.222656 182.667969 114.222656 182.757812 C 114.222656 182.832031 114.183594 182.890625 114.101562 182.90625 C 114.015625 182.890625 113.957031 182.839844 113.957031 182.742188 Z M 89.914062 169.515625 C 89.921875 169.429688 89.984375 169.398438 90.0625 169.40625 C 90.128906 169.410156 90.171875 169.449219 90.167969 169.519531 C 90.160156 169.605469 90.121094 169.648438 90.039062 169.65625 C 89.949219 169.648438 89.910156 169.597656 89.914062 169.515625 Z M 110.511719 166.53125 C 110.519531 166.460938 110.5625 166.429688 110.628906 166.429688 C 110.710938 166.429688 110.765625 166.472656 110.769531 166.550781 C 110.777344 166.621094 110.707031 166.636719 110.636719 166.65625 C 110.582031 166.628906 110.507812 166.636719 110.511719 166.53125 Z M 90.039062 165.90625 C 90.113281 165.902344 90.171875 165.933594 90.191406 166.015625 C 90.210938 166.09375 90.167969 166.121094 90.101562 166.132812 C 90.023438 166.144531 89.964844 166.121094 89.941406 166.035156 C 89.949219 165.972656 89.972656 165.914062 90.039062 165.90625 Z M 97.367188 162.628906 C 97.238281 162.699219 97.207031 162.875 97.058594 162.925781 C 97.046875 162.933594 97.019531 162.90625 97.011719 162.894531 C 97 162.867188 97.308594 162.570312 97.339844 162.578125 C 97.355469 162.597656 97.367188 162.628906 97.367188 162.628906 Z M 116.160156 185.28125 C 116.226562 185.289062 116.265625 185.328125 116.265625 185.398438 C 116.257812 185.472656 116.210938 185.527344 116.136719 185.519531 C 116.070312 185.519531 116.03125 185.480469 116.039062 185.382812 C 116.058594 185.347656 116.078125 185.273438 116.160156 185.28125 Z M 111.1875 173.84375 C 111.136719 173.925781 111.257812 174.0625 111.113281 174.105469 C 111.058594 174.121094 111.019531 174.046875 111.046875 174.015625 C 111.125 173.9375 111.019531 173.808594 111.125 173.746094 C 111.195312 173.753906 111.203125 173.808594 111.1875 173.84375 Z M 91.449219 168.414062 C 91.621094 168.394531 91.539062 168.566406 91.609375 168.625 C 91.640625 168.652344 91.71875 168.664062 91.671875 168.710938 C 91.628906 168.746094 91.542969 168.753906 91.480469 168.746094 C 91.410156 168.742188 91.449219 168.683594 91.46875 168.644531 C 91.5 168.5625 91.488281 168.484375 91.449219 168.414062 Z M 113.589844 189.597656 C 113.65625 189.578125 113.628906 189.65625 113.644531 189.6875 C 113.664062 189.730469 113.648438 189.789062 113.585938 189.777344 C 113.546875 189.769531 113.507812 189.738281 113.46875 189.71875 C 113.515625 189.675781 113.546875 189.609375 113.589844 189.597656 Z M 92.453125 164.535156 C 92.542969 164.523438 92.613281 164.566406 92.621094 164.664062 C 92.625 164.730469 92.574219 164.773438 92.511719 164.78125 C 92.433594 164.785156 92.375 164.753906 92.363281 164.664062 C 92.367188 164.605469 92.386719 164.542969 92.453125 164.535156 Z M 113.699219 187.722656 C 113.644531 187.730469 113.597656 187.65625 113.625 187.640625 C 113.714844 187.5625 113.589844 187.375 113.757812 187.355469 C 113.824219 187.347656 113.808594 187.4375 113.808594 187.496094 C 113.777344 187.574219 113.84375 187.703125 113.699219 187.722656 Z M 91.210938 170.398438 C 91.210938 170.324219 91.273438 170.292969 91.332031 170.292969 C 91.410156 170.292969 91.421875 170.359375 91.421875 170.417969 C 91.421875 170.46875 91.390625 170.5 91.324219 170.5 C 91.28125 170.472656 91.210938 170.46875 91.210938 170.398438 Z M 90.40625 166.867188 C 90.46875 166.859375 90.519531 166.886719 90.527344 166.957031 C 90.535156 167.035156 90.488281 167.097656 90.417969 167.113281 C 90.339844 167.132812 90.296875 167.066406 90.269531 166.996094 C 90.277344 166.90625 90.332031 166.875 90.40625 166.867188 Z M 112.984375 166.261719 C 113 166.203125 113.050781 166.199219 113.09375 166.203125 C 113.160156 166.210938 113.203125 166.25 113.203125 166.3125 C 113.203125 166.382812 113.160156 166.417969 113.089844 166.410156 C 113.011719 166.398438 112.972656 166.34375 112.984375 166.261719 Z M 92.582031 170.796875 C 92.574219 170.859375 92.535156 170.898438 92.464844 170.894531 C 92.382812 170.878906 92.304688 170.839844 92.3125 170.746094 C 92.3125 170.667969 92.375 170.628906 92.464844 170.621094 C 92.53125 170.648438 92.582031 170.699219 92.582031 170.796875 Z M 112.582031 179.992188 C 112.652344 180.050781 112.722656 180.117188 112.773438 180.191406 C 112.804688 180.230469 112.78125 180.25 112.726562 180.238281 C 112.625 180.207031 112.546875 180.140625 112.496094 180.050781 C 112.515625 180.007812 112.5625 179.972656 112.582031 179.992188 Z M 93.230469 164.695312 C 93.308594 164.722656 93.378906 164.792969 93.449219 164.839844 C 93.386719 164.878906 93.316406 164.921875 93.246094 164.949219 C 93.1875 164.972656 93.15625 164.871094 93.140625 164.800781 C 93.148438 164.75 93.160156 164.671875 93.230469 164.695312 Z M 98.28125 163.253906 C 98.382812 163.265625 98.398438 163.351562 98.398438 163.441406 C 98.398438 163.492188 98.367188 163.539062 98.3125 163.523438 C 98.230469 163.5 98.179688 163.433594 98.152344 163.355469 C 98.179688 163.292969 98.210938 163.242188 98.28125 163.253906 Z M 92.644531 163.382812 C 92.679688 163.460938 92.511719 163.542969 92.644531 163.621094 C 92.691406 163.648438 92.710938 163.703125 92.644531 163.703125 C 92.53125 163.699219 92.523438 163.570312 92.496094 163.492188 C 92.453125 163.34375 92.59375 163.410156 92.644531 163.382812 Z M 110.929688 170.578125 C 110.996094 170.570312 111.039062 170.617188 111.035156 170.6875 C 111.027344 170.789062 110.964844 170.835938 110.875 170.828125 C 110.808594 170.828125 110.769531 170.785156 110.765625 170.710938 C 110.765625 170.617188 110.847656 170.589844 110.929688 170.578125 Z M 91.789062 169.667969 C 91.777344 169.578125 91.808594 169.5 91.90625 169.476562 C 91.976562 169.457031 92.015625 169.507812 92.019531 169.574219 C 92.035156 169.664062 92.019531 169.738281 91.976562 169.746094 C 91.847656 169.765625 91.796875 169.738281 91.789062 169.667969 Z M 94.777344 163.574219 C 94.855469 163.574219 94.816406 163.6875 94.824219 163.75 C 94.828125 163.808594 94.882812 163.90625 94.765625 163.90625 C 94.6875 163.90625 94.71875 163.820312 94.726562 163.769531 C 94.746094 163.703125 94.65625 163.582031 94.777344 163.574219 Z M 96.292969 162.9375 C 96.332031 162.886719 96.34375 162.796875 96.425781 162.785156 C 96.464844 162.777344 96.503906 162.804688 96.496094 162.835938 C 96.476562 162.917969 96.402344 162.925781 96.332031 162.945312 C 96.324219 162.925781 96.257812 162.984375 96.292969 162.9375 Z M 101.160156 161.90625 C 101.21875 161.921875 101.265625 161.960938 101.25 162.023438 C 101.246094 162.074219 101.207031 162.09375 101.152344 162.09375 C 101.082031 162.09375 101.050781 162.054688 101.050781 161.992188 C 101.058594 161.933594 101.089844 161.894531 101.160156 161.90625 Z M 102.886719 160.953125 C 102.957031 160.949219 102.984375 161.007812 102.976562 161.070312 C 102.96875 161.136719 102.933594 161.171875 102.859375 161.167969 C 102.804688 161.160156 102.789062 161.121094 102.785156 161.070312 C 102.785156 161.007812 102.824219 160.960938 102.886719 160.953125 Z M 113.171875 188.535156 C 113.171875 188.617188 113.128906 188.65625 113.042969 188.648438 C 112.992188 188.644531 112.914062 188.65625 112.921875 188.574219 C 112.929688 188.5 112.980469 188.449219 113.050781 188.445312 C 113.121094 188.445312 113.171875 188.457031 113.171875 188.535156 Z M 91.828125 164.335938 C 91.898438 164.335938 91.9375 164.375 91.9375 164.445312 C 91.9375 164.511719 91.910156 164.566406 91.839844 164.554688 C 91.78125 164.546875 91.738281 164.503906 91.746094 164.433594 C 91.75 164.375 91.777344 164.335938 91.828125 164.335938 Z M 109.957031 167.757812 C 109.945312 167.703125 109.976562 167.671875 110.03125 167.664062 C 110.085938 167.660156 110.152344 167.648438 110.144531 167.738281 C 110.144531 167.78125 110.105469 167.8125 110.054688 167.828125 C 110.003906 167.828125 109.964844 167.808594 109.957031 167.757812 Z M 114.132812 186.832031 C 114.113281 186.808594 114.152344 186.769531 114.191406 186.777344 C 114.273438 186.777344 114.351562 186.796875 114.363281 186.898438 C 114.363281 186.921875 114.339844 186.949219 114.3125 186.996094 C 114.242188 186.9375 114.175781 186.890625 114.132812 186.832031 Z M 99.292969 161.265625 C 99.332031 161.257812 99.351562 161.296875 99.351562 161.328125 C 99.351562 161.378906 99.324219 161.417969 99.265625 161.398438 C 99.234375 161.386719 99.214844 161.359375 99.226562 161.308594 C 99.242188 161.296875 99.265625 161.265625 99.292969 161.265625 Z M 111.460938 168.324219 C 111.464844 168.375 111.445312 168.417969 111.394531 168.414062 C 111.371094 168.414062 111.332031 168.382812 111.324219 168.355469 C 111.3125 168.308594 111.34375 168.269531 111.382812 168.257812 C 111.425781 168.265625 111.453125 168.289062 111.460938 168.324219 Z M 116.050781 185.695312 C 116.097656 185.699219 116.128906 185.738281 116.121094 185.789062 C 116.117188 185.816406 116.078125 185.847656 116.058594 185.847656 C 116.007812 185.847656 115.980469 185.816406 115.992188 185.75 C 116.007812 185.730469 116.03125 185.695312 116.050781 185.695312 Z M 111.003906 166.332031 C 111.027344 166.339844 111.066406 166.371094 111.074219 166.390625 C 111.078125 166.441406 111.046875 166.472656 110.996094 166.46875 C 110.957031 166.460938 110.945312 166.429688 110.945312 166.398438 C 110.945312 166.359375 110.96875 166.328125 111.003906 166.332031 Z M 111.957031 166.042969 C 111.957031 166.03125 111.976562 166.003906 111.992188 165.996094 C 112.027344 165.984375 112.058594 166.003906 112.066406 166.035156 C 112.070312 166.070312 112.050781 166.09375 112.019531 166.105469 C 111.980469 166.101562 111.960938 166.074219 111.957031 166.042969 Z M 93.597656 162.789062 C 93.636719 162.789062 93.664062 162.816406 93.664062 162.855469 C 93.664062 162.894531 93.636719 162.917969 93.597656 162.917969 C 93.5625 162.917969 93.535156 162.894531 93.527344 162.855469 C 93.535156 162.816406 93.5625 162.789062 93.597656 162.789062 Z M 91.808594 169.277344 C 91.808594 169.367188 91.730469 169.378906 91.667969 169.40625 C 91.621094 169.425781 91.609375 169.386719 91.617188 169.347656 C 91.628906 169.277344 91.648438 169.210938 91.738281 169.207031 C 91.78125 169.21875 91.808594 169.238281 91.808594 169.277344 Z M 114.074219 188.8125 C 114.09375 188.863281 114.066406 188.902344 114.011719 188.914062 C 113.957031 188.925781 113.90625 188.90625 113.914062 188.847656 C 113.917969 188.796875 113.957031 188.746094 113.992188 188.675781 C 114.027344 188.734375 114.0625 188.773438 114.074219 188.8125 Z M 92.652344 163.390625 C 92.699219 163.34375 92.652344 163.234375 92.75 163.234375 C 92.792969 163.234375 92.839844 163.285156 92.820312 163.332031 C 92.792969 163.421875 92.703125 163.355469 92.652344 163.390625 Z M 108.605469 164.117188 C 108.601562 164.058594 108.644531 164.039062 108.695312 164.039062 C 108.746094 164.039062 108.785156 164.066406 108.792969 164.125 C 108.800781 164.175781 108.785156 164.214844 108.730469 164.226562 C 108.652344 164.21875 108.613281 164.179688 108.605469 164.117188 Z M 115.125 182.90625 C 115.117188 182.929688 115.085938 182.960938 115.058594 182.96875 C 115.027344 182.976562 114.988281 182.957031 115 182.910156 C 115.007812 182.886719 115.039062 182.859375 115.058594 182.839844 C 115.109375 182.847656 115.136719 182.867188 115.125 182.90625 Z M 96.742188 161.722656 C 96.734375 161.761719 96.714844 161.792969 96.679688 161.785156 C 96.625 161.777344 96.59375 161.742188 96.605469 161.6875 C 96.613281 161.648438 96.652344 161.644531 96.691406 161.644531 C 96.722656 161.65625 96.742188 161.683594 96.742188 161.722656 Z M 114.488281 180.585938 C 114.511719 180.59375 114.558594 180.617188 114.558594 180.644531 C 114.570312 180.703125 114.523438 180.722656 114.472656 180.707031 C 114.449219 180.703125 114.429688 180.667969 114.414062 180.652344 C 114.429688 180.597656 114.453125 180.574219 114.488281 180.585938 Z M 115.910156 188 C 115.902344 188.023438 115.871094 188.050781 115.84375 188.058594 C 115.8125 188.0625 115.773438 188.042969 115.78125 188.003906 C 115.789062 187.980469 115.8125 187.953125 115.8125 187.949219 C 115.882812 187.941406 115.917969 187.960938 115.910156 188 Z M 97.675781 161.171875 C 97.695312 161.167969 97.726562 161.167969 97.742188 161.171875 C 97.773438 161.199219 97.761719 161.230469 97.734375 161.257812 C 97.707031 161.277344 97.675781 161.285156 97.644531 161.25 C 97.625 161.21875 97.644531 161.1875 97.675781 161.171875 Z M 92.351562 163.214844 C 92.34375 163.253906 92.316406 163.28125 92.277344 163.28125 C 92.242188 163.28125 92.203125 163.261719 92.207031 163.222656 C 92.214844 163.175781 92.253906 163.152344 92.296875 163.144531 C 92.351562 163.144531 92.355469 163.183594 92.351562 163.214844 Z M 92.921875 164.878906 C 92.910156 164.910156 92.902344 164.953125 92.859375 164.949219 C 92.808594 164.933594 92.800781 164.878906 92.800781 164.832031 C 92.800781 164.792969 92.828125 164.769531 92.871094 164.769531 C 92.929688 164.785156 92.941406 164.824219 92.921875 164.878906 Z M 114.660156 186.144531 C 114.746094 186.152344 114.726562 186.222656 114.726562 186.273438 C 114.726562 186.300781 114.707031 186.324219 114.699219 186.355469 C 114.667969 186.3125 114.632812 186.265625 114.609375 186.234375 C 114.609375 186.175781 114.628906 186.144531 114.660156 186.144531 Z M 96.054688 163.320312 C 96.097656 163.273438 96.09375 163.171875 96.195312 163.203125 C 96.207031 163.203125 96.21875 163.222656 96.21875 163.226562 C 96.195312 163.324219 96.09375 163.265625 96.054688 163.320312 Z M 93.953125 163.757812 C 93.972656 163.757812 94.003906 163.761719 94.011719 163.777344 C 94.039062 163.808594 94.011719 163.832031 93.980469 163.847656 C 93.945312 163.859375 93.914062 163.851562 93.894531 163.820312 C 93.890625 163.777344 93.914062 163.761719 93.953125 163.757812 Z M 107.628906 163.761719 C 107.648438 163.761719 107.679688 163.777344 107.679688 163.789062 C 107.691406 163.828125 107.660156 163.851562 107.621094 163.847656 C 107.609375 163.847656 107.59375 163.820312 107.582031 163.800781 C 107.601562 163.789062 107.613281 163.761719 107.628906 163.761719 Z M 113.738281 182.402344 C 113.738281 182.441406 113.71875 182.472656 113.679688 182.464844 C 113.644531 182.460938 113.625 182.429688 113.628906 182.394531 C 113.628906 182.355469 113.65625 182.332031 113.6875 182.332031 C 113.726562 182.339844 113.738281 182.371094 113.738281 182.402344 Z M 90.332031 169.140625 C 90.359375 169.140625 90.40625 169.160156 90.410156 169.179688 C 90.429688 169.230469 90.390625 169.261719 90.347656 169.261719 C 90.320312 169.261719 90.296875 169.230469 90.28125 169.21875 C 90.277344 169.167969 90.296875 169.140625 90.332031 169.140625 Z M 111.007812 169.347656 C 111.027344 169.347656 111.054688 169.351562 111.066406 169.367188 C 111.085938 169.398438 111.066406 169.425781 111.039062 169.4375 C 111.007812 169.449219 110.976562 169.445312 110.964844 169.417969 C 110.945312 169.367188 110.976562 169.347656 111.007812 169.347656 Z M 113.101562 165.378906 C 113.101562 165.390625 113.070312 165.410156 113.050781 165.410156 C 113.011719 165.410156 112.984375 165.386719 112.992188 165.347656 C 112.992188 165.335938 113.023438 165.328125 113.042969 165.320312 C 113.082031 165.328125 113.113281 165.339844 113.101562 165.378906 Z M 112.488281 179.464844 C 112.484375 179.484375 112.457031 179.496094 112.4375 179.496094 C 112.40625 179.503906 112.375 179.484375 112.375 179.445312 C 112.375 179.40625 112.40625 179.402344 112.4375 179.402344 C 112.476562 179.40625 112.503906 179.425781 112.488281 179.464844 Z M 110.339844 174.253906 C 110.339844 174.292969 110.304688 174.320312 110.269531 174.3125 C 110.230469 174.304688 110.210938 174.28125 110.210938 174.25 C 110.210938 174.210938 110.242188 174.191406 110.261719 174.191406 C 110.320312 174.195312 110.339844 174.222656 110.339844 174.253906 Z M 108.753906 163.191406 C 108.753906 163.203125 108.714844 163.222656 108.695312 163.214844 C 108.65625 163.214844 108.632812 163.191406 108.636719 163.152344 C 108.636719 163.136719 108.675781 163.132812 108.691406 163.125 C 108.734375 163.125 108.765625 163.144531 108.753906 163.191406 Z M 95.035156 164.84375 C 95.015625 164.84375 94.996094 164.824219 94.984375 164.8125 C 94.957031 164.773438 94.976562 164.75 95.015625 164.75 C 95.042969 164.75 95.074219 164.769531 95.09375 164.773438 C 95.09375 164.824219 95.066406 164.851562 95.035156 164.84375 Z M 94.121094 164.335938 C 94.121094 164.355469 94.109375 164.382812 94.101562 164.402344 C 94.074219 164.382812 94.042969 164.367188 94.023438 164.34375 C 94.003906 164.308594 94.019531 164.277344 94.0625 164.265625 C 94.109375 164.265625 94.121094 164.296875 94.121094 164.335938 Z M 101.019531 162.621094 C 101.0625 162.636719 101.101562 162.667969 101.097656 162.71875 C 101.097656 162.730469 101.039062 162.746094 101.007812 162.746094 C 100.972656 162.746094 100.941406 162.71875 100.941406 162.75 C 100.953125 162.636719 100.988281 162.617188 101.019531 162.621094 Z M 110.910156 170.988281 C 110.925781 170.984375 110.964844 170.996094 110.96875 171.007812 C 110.984375 171.039062 110.976562 171.078125 110.929688 171.078125 C 110.917969 171.078125 110.898438 171.054688 110.886719 171.039062 C 110.886719 171.023438 110.894531 170.988281 110.910156 170.988281 Z M 111.203125 171.664062 C 111.15625 171.652344 111.085938 171.660156 111.085938 171.582031 C 111.085938 171.574219 111.097656 171.554688 111.105469 171.554688 C 111.183594 171.554688 111.175781 171.621094 111.203125 171.664062 Z M 100.644531 160.582031 C 100.664062 160.574219 100.695312 160.585938 100.703125 160.601562 C 100.714844 160.640625 100.703125 160.671875 100.660156 160.671875 C 100.644531 160.671875 100.625 160.644531 100.613281 160.632812 C 100.621094 160.613281 100.625 160.585938 100.644531 160.582031 Z M 92.441406 171.679688 C 92.472656 171.691406 92.503906 171.703125 92.496094 171.742188 C 92.492188 171.773438 92.472656 171.800781 92.433594 171.789062 C 92.402344 171.78125 92.375 171.761719 92.382812 171.722656 C 92.382812 171.691406 92.394531 171.664062 92.441406 171.679688 Z M 111.246094 172.195312 C 111.214844 172.199219 111.1875 172.214844 111.15625 172.21875 C 111.148438 172.21875 111.132812 172.179688 111.132812 172.167969 C 111.136719 172.136719 111.148438 172.105469 111.207031 172.121094 C 111.222656 172.136719 111.234375 172.160156 111.246094 172.195312 Z M 110.636719 173.023438 C 110.65625 173.03125 110.671875 173.042969 110.679688 173.0625 C 110.691406 173.101562 110.667969 173.128906 110.636719 173.128906 C 110.597656 173.132812 110.578125 173.109375 110.578125 173.070312 C 110.578125 173.042969 110.589844 173.011719 110.636719 173.023438 Z M 113.371094 188.8125 C 113.410156 188.804688 113.4375 188.832031 113.4375 188.863281 C 113.4375 188.875 113.417969 188.902344 113.40625 188.902344 C 113.367188 188.90625 113.347656 188.882812 113.339844 188.847656 C 113.347656 188.835938 113.359375 188.816406 113.371094 188.8125 Z M 91.285156 165.1875 C 91.304688 165.191406 91.339844 165.199219 91.34375 165.210938 C 91.351562 165.226562 91.332031 165.25 91.324219 165.269531 C 91.304688 165.261719 91.285156 165.25 91.269531 165.246094 C 91.273438 165.226562 91.28125 165.207031 91.285156 165.1875 Z M 93.65625 164.445312 C 93.636719 164.453125 93.605469 164.4375 93.597656 164.425781 C 93.585938 164.386719 93.605469 164.363281 93.644531 164.363281 C 93.65625 164.363281 93.675781 164.386719 93.6875 164.402344 C 93.675781 164.414062 93.671875 164.4375 93.65625 164.445312 Z M 109.664062 177.925781 C 109.667969 177.925781 109.683594 177.945312 109.683594 177.953125 C 109.675781 177.972656 109.65625 177.984375 109.648438 177.996094 C 109.636719 177.984375 109.625 177.964844 109.609375 177.953125 C 109.625 177.945312 109.644531 177.933594 109.664062 177.925781 Z M 105.476562 178.558594 C 105.480469 178.578125 105.5 178.601562 105.496094 178.609375 C 105.488281 178.621094 105.464844 178.628906 105.445312 178.632812 C 105.4375 178.613281 105.429688 178.597656 105.417969 178.578125 C 105.445312 178.570312 105.464844 178.5625 105.476562 178.558594 Z M 92.535156 165.257812 C 92.550781 165.261719 92.554688 165.296875 92.5625 165.316406 C 92.542969 165.320312 92.515625 165.339844 92.503906 165.335938 C 92.492188 165.328125 92.484375 165.296875 92.472656 165.28125 C 92.496094 165.269531 92.523438 165.25 92.535156 165.257812 Z M 90.28125 169.835938 C 90.261719 169.84375 90.242188 169.847656 90.230469 169.847656 C 90.222656 169.847656 90.210938 169.828125 90.21875 169.824219 C 90.230469 169.8125 90.242188 169.796875 90.257812 169.785156 C 90.257812 169.804688 90.269531 169.816406 90.28125 169.835938 Z M 110.578125 169.765625 C 110.597656 169.773438 110.621094 169.785156 110.621094 169.804688 C 110.636719 169.84375 110.609375 169.867188 110.578125 169.875 C 110.539062 169.882812 110.519531 169.855469 110.511719 169.816406 C 110.511719 169.773438 110.539062 169.753906 110.578125 169.765625 Z M 101.398438 161.140625 C 101.390625 161.128906 101.410156 161.101562 101.417969 161.082031 C 101.4375 161.089844 101.464844 161.097656 101.46875 161.109375 C 101.476562 161.121094 101.464844 161.148438 101.457031 161.167969 C 101.429688 161.160156 101.40625 161.15625 101.398438 161.140625 Z M 92.910156 163.628906 C 92.902344 163.613281 92.921875 163.589844 92.929688 163.574219 C 92.949219 163.582031 92.972656 163.589844 92.980469 163.601562 C 92.988281 163.613281 92.972656 163.640625 92.96875 163.660156 C 92.949219 163.648438 92.921875 163.640625 92.910156 163.628906 Z M 114.550781 187.972656 C 114.5625 187.980469 114.578125 188.011719 114.578125 188.03125 C 114.570312 188.070312 114.53125 188.082031 114.5 188.0625 C 114.488281 188.058594 114.480469 188.023438 114.472656 188.003906 C 114.488281 187.972656 114.519531 187.960938 114.550781 187.972656 Z M 114.78125 187.988281 C 114.796875 187.980469 114.828125 187.988281 114.835938 187.992188 C 114.855469 188.023438 114.835938 188.050781 114.800781 188.0625 C 114.789062 188.070312 114.769531 188.050781 114.75 188.042969 C 114.761719 188.023438 114.769531 188 114.78125 187.988281 Z M 91.125 168.367188 C 91.160156 168.355469 91.191406 168.367188 91.203125 168.40625 C 91.210938 168.417969 91.195312 168.453125 91.183594 168.464844 C 91.152344 168.484375 91.121094 168.472656 91.105469 168.433594 C 91.113281 168.40625 91.113281 168.375 91.125 168.367188 Z M 113.828125 182.648438 C 113.84375 182.652344 113.863281 182.679688 113.863281 182.699219 C 113.855469 182.738281 113.828125 182.757812 113.789062 182.742188 C 113.777344 182.738281 113.773438 182.710938 113.757812 182.691406 C 113.773438 182.648438 113.796875 182.632812 113.828125 182.648438 Z M 114.710938 182.800781 C 114.730469 182.800781 114.761719 182.808594 114.769531 182.820312 C 114.789062 182.859375 114.769531 182.886719 114.726562 182.886719 C 114.710938 182.886719 114.691406 182.859375 114.679688 182.847656 C 114.691406 182.832031 114.707031 182.808594 114.710938 182.800781 Z M 114.570312 183.285156 C 114.601562 183.277344 114.640625 183.292969 114.640625 183.328125 C 114.640625 183.347656 114.628906 183.382812 114.609375 183.382812 C 114.570312 183.394531 114.542969 183.375 114.539062 183.335938 C 114.550781 183.324219 114.558594 183.292969 114.570312 183.285156 Z M 113.914062 183.355469 C 113.90625 183.34375 113.914062 183.304688 113.917969 183.296875 C 113.953125 183.277344 113.984375 183.292969 113.996094 183.328125 C 114.003906 183.34375 113.976562 183.367188 113.972656 183.382812 C 113.953125 183.375 113.925781 183.375 113.914062 183.355469 Z M 93.398438 163.847656 C 93.414062 163.839844 93.445312 163.851562 93.449219 163.859375 C 93.476562 163.886719 93.464844 163.917969 93.425781 163.925781 C 93.414062 163.925781 93.394531 163.90625 93.375 163.898438 C 93.386719 163.878906 93.386719 163.851562 93.398438 163.847656 Z M 115.78125 184.28125 C 115.820312 184.277344 115.84375 184.300781 115.84375 184.339844 C 115.84375 184.355469 115.828125 184.386719 115.8125 184.386719 C 115.773438 184.390625 115.753906 184.367188 115.75 184.328125 C 115.761719 184.308594 115.769531 184.28125 115.78125 184.28125 Z M 115.34375 184.777344 C 115.335938 184.792969 115.3125 184.8125 115.296875 184.804688 C 115.257812 184.796875 115.246094 184.773438 115.253906 184.742188 C 115.257812 184.726562 115.285156 184.722656 115.304688 184.707031 C 115.335938 184.722656 115.355469 184.746094 115.34375 184.777344 Z M 90.5 166.09375 C 90.496094 166.105469 90.460938 166.121094 90.449219 166.121094 C 90.417969 166.113281 90.40625 166.082031 90.417969 166.050781 C 90.425781 166.035156 90.449219 166.03125 90.46875 166.023438 C 90.5 166.035156 90.515625 166.0625 90.5 166.09375 Z M 115.058594 186.828125 C 115.054688 186.839844 115.027344 186.847656 115.007812 186.851562 C 115 186.832031 114.984375 186.808594 114.988281 186.800781 C 114.996094 186.789062 115.019531 186.78125 115.039062 186.777344 C 115.054688 186.789062 115.066406 186.808594 115.058594 186.828125 Z M 92.226562 163.8125 C 92.234375 163.796875 92.253906 163.761719 92.253906 163.761719 C 92.285156 163.769531 92.207031 163.660156 92.277344 163.738281 C 92.335938 163.789062 92.226562 163.769531 92.226562 163.8125 C 92.226562 163.808594 92.226562 163.8125 92.226562 163.8125 Z M 90.773438 166.746094 C 90.785156 166.75 90.796875 166.785156 90.792969 166.796875 C 90.785156 166.828125 90.753906 166.839844 90.71875 166.828125 C 90.707031 166.820312 90.699219 166.796875 90.695312 166.777344 C 90.714844 166.738281 90.738281 166.726562 90.773438 166.746094 Z M 99.484375 162.074219 C 99.503906 162.082031 99.53125 162.089844 99.542969 162.101562 C 99.570312 162.125 99.570312 162.160156 99.523438 162.164062 C 99.503906 162.164062 99.484375 162.144531 99.464844 162.140625 C 99.472656 162.121094 99.480469 162.09375 99.484375 162.074219 Z M 114.796875 183.421875 C 114.800781 183.414062 114.808594 183.40625 114.820312 183.402344 C 114.839844 183.386719 114.859375 183.402344 114.855469 183.433594 C 114.855469 183.445312 114.828125 183.457031 114.808594 183.464844 C 114.777344 183.464844 114.769531 183.445312 114.796875 183.421875 Z M 96.921875 163.539062 C 96.941406 163.539062 96.960938 163.550781 96.980469 163.558594 C 96.960938 163.5625 96.941406 163.582031 96.921875 163.582031 C 96.902344 163.582031 96.882812 163.570312 96.863281 163.5625 C 96.890625 163.558594 96.910156 163.542969 96.921875 163.539062 Z M 114.609375 184.722656 C 114.609375 184.722656 114.601562 184.742188 114.601562 184.742188 C 114.597656 184.742188 114.582031 184.734375 114.570312 184.734375 C 114.570312 184.707031 114.582031 184.703125 114.609375 184.722656 Z M 91.539062 167.679688 C 91.53125 167.683594 91.519531 167.683594 91.511719 167.683594 C 91.488281 167.671875 91.492188 167.660156 91.519531 167.652344 C 91.523438 167.652344 91.539062 167.660156 91.542969 167.660156 C 91.542969 167.664062 91.542969 167.679688 91.539062 167.679688 Z M 93.21875 162.675781 C 93.226562 162.6875 93.238281 162.699219 93.246094 162.707031 C 93.199219 162.730469 93.226562 162.6875 93.21875 162.675781 Z M 112.835938 188.429688 C 112.820312 188.425781 112.800781 188.417969 112.78125 188.40625 C 112.785156 188.398438 112.792969 188.378906 112.800781 188.378906 C 112.820312 188.386719 112.835938 188.390625 112.855469 188.40625 C 112.851562 188.417969 112.84375 188.429688 112.835938 188.429688 Z M 97.1875 163.382812 C 97.199219 163.382812 97.21875 163.394531 97.238281 163.402344 C 97.230469 163.414062 97.21875 163.441406 97.210938 163.441406 C 97.191406 163.441406 97.179688 163.429688 97.160156 163.414062 C 97.167969 163.410156 97.179688 163.390625 97.1875 163.382812 Z M 110.828125 173.371094 C 110.820312 173.410156 110.800781 173.410156 110.789062 173.378906 C 110.78125 173.371094 110.789062 173.359375 110.796875 173.347656 C 110.796875 173.339844 110.808594 173.347656 110.820312 173.347656 C 110.820312 173.347656 110.828125 173.359375 110.828125 173.371094 Z M 92.257812 164.914062 C 92.277344 164.910156 92.292969 164.894531 92.3125 164.890625 C 92.316406 164.890625 92.332031 164.902344 92.335938 164.910156 C 92.316406 164.914062 92.304688 164.929688 92.285156 164.933594 C 92.277344 164.929688 92.265625 164.921875 92.257812 164.914062 Z M 113.082031 181.402344 L 113.058594 181.402344 L 113.070312 181.378906 Z M 92.773438 170.011719 L 92.753906 170.011719 L 92.761719 169.992188 Z M 92.910156 170.925781 L 92.890625 170.925781 L 92.898438 170.90625 Z M 92.910156 170.925781 " fill-opacity="1" fill-rule="nonzero"/></g><g fill="#ffffff" fill-opacity="1"><g transform="translate(147.791978, 203.352845)"><g><path d="M 11.5 -10.125 C 12.613281 -9.6875 13.492188 -9.066406 14.140625 -8.265625 C 14.785156 -7.460938 15.109375 -6.535156 15.109375 -5.484375 C 15.109375 -4.234375 14.804688 -3.195312 14.203125 -2.375 C 13.597656 -1.5625 12.804688 -0.960938 11.828125 -0.578125 C 10.847656 -0.191406 9.773438 0 8.609375 0 L 2.8125 0 L 2.8125 -19.515625 L 7.859375 -19.515625 C 9.847656 -19.515625 11.390625 -19.101562 12.484375 -18.28125 C 13.585938 -17.457031 14.140625 -16.226562 14.140625 -14.59375 C 14.140625 -13.570312 13.910156 -12.675781 13.453125 -11.90625 C 12.992188 -11.144531 12.34375 -10.550781 11.5 -10.125 Z M 5.421875 -10.984375 L 8.390625 -10.984375 C 9.398438 -10.984375 10.160156 -11.269531 10.671875 -11.84375 C 11.179688 -12.414062 11.4375 -13.15625 11.4375 -14.0625 C 11.4375 -15.050781 11.128906 -15.785156 10.515625 -16.265625 C 9.910156 -16.753906 9.054688 -17 7.953125 -17 L 5.421875 -17 Z M 8.5 -2.421875 C 9.632812 -2.421875 10.566406 -2.675781 11.296875 -3.1875 C 12.035156 -3.707031 12.40625 -4.460938 12.40625 -5.453125 C 12.40625 -6.472656 12.003906 -7.226562 11.203125 -7.71875 C 10.410156 -8.207031 9.445312 -8.453125 8.3125 -8.453125 L 5.421875 -8.453125 L 5.421875 -2.421875 Z M 8.5 -2.421875 "/></g></g></g><g fill="#ffffff" fill-opacity="1"><g transform="translate(171.428052, 203.352845)"><g><path d="M 17.921875 -19.515625 L 10.609375 -6.5 L 10.609375 0 L 7.984375 0 L 7.984375 -6.5 L 0.75 -19.515625 L 4 -19.515625 L 9.359375 -9.46875 L 14.703125 -19.515625 Z M 17.921875 -19.515625 "/></g></g></g><g fill="#ffffff" fill-opacity="1"><g transform="translate(197.033664, 203.352845)"><g/></g></g><g fill="#ffffff" fill-opacity="1"><g transform="translate(212.494819, 203.352845)"><g><path d="M 7.046875 -3.53125 C 7.046875 -1.988281 6.75 -0.65625 6.15625 0.46875 C 5.5625 1.59375 4.738281 2.457031 3.6875 3.0625 C 2.632812 3.664062 1.429688 3.984375 0.078125 4.015625 L 0.078125 1.484375 C 1.410156 1.410156 2.46875 0.945312 3.25 0.09375 C 4.03125 -0.757812 4.421875 -1.992188 4.421875 -3.609375 L 4.421875 -19.515625 L 7.046875 -19.515625 Z M 7.046875 -3.53125 "/></g></g></g><g fill="#ffffff" fill-opacity="1"><g transform="translate(229.277981, 203.352845)"><g><path d="M 2.8125 -19.515625 L 8.15625 -19.515625 C 10.582031 -19.515625 12.585938 -19.03125 14.171875 -18.0625 C 15.765625 -17.101562 16.925781 -15.863281 17.65625 -14.34375 C 18.382812 -12.820312 18.75 -11.21875 18.75 -9.53125 C 18.75 -7.632812 18.304688 -5.960938 17.421875 -4.515625 C 16.546875 -3.066406 15.367188 -1.953125 13.890625 -1.171875 C 12.421875 -0.390625 10.820312 0 9.09375 0 L 2.8125 0 Z M 8.578125 -2.53125 C 10.015625 -2.53125 11.300781 -2.8125 12.4375 -3.375 C 13.570312 -3.945312 14.457031 -4.769531 15.09375 -5.84375 C 15.738281 -6.925781 16.0625 -8.21875 16.0625 -9.71875 C 16.0625 -11.25 15.726562 -12.5625 15.0625 -13.65625 C 14.394531 -14.75 13.503906 -15.578125 12.390625 -16.140625 C 11.285156 -16.710938 10.097656 -17 8.828125 -17 L 5.421875 -17 L 5.421875 -2.53125 Z M 8.578125 -2.53125 "/></g></g></g><g fill="#ffffff" fill-opacity="1"><g transform="translate(256.556339, 203.352845)"><g><path d="M 5.421875 -19.515625 L 5.421875 0 L 2.8125 0 L 2.8125 -19.515625 Z M 5.421875 -19.515625 "/></g></g></g><g fill="#ffffff" fill-opacity="1"><g transform="translate(271.720724, 203.352845)"><g><path d="M 15.484375 -19.515625 L 15.484375 -17 L 5.421875 -17 L 5.421875 -11.0625 L 14.40625 -11.0625 L 14.40625 -8.546875 L 5.421875 -8.546875 L 5.421875 -2.53125 L 15.859375 -2.53125 L 15.859375 0 L 2.8125 0 L 2.8125 -19.515625 Z M 15.484375 -19.515625 "/></g></g></g><g fill="#ffffff" fill-opacity="1"><g transform="translate(296.274116, 203.352845)"><g><path d="M 18.109375 -1.671875 C 17.515625 -1.203125 16.582031 -0.769531 15.3125 -0.375 C 14.039062 0.0195312 12.867188 0.21875 11.796875 0.21875 C 9.765625 0.21875 7.972656 -0.195312 6.421875 -1.03125 C 4.878906 -1.875 3.6875 -3.023438 2.84375 -4.484375 C 2.007812 -5.941406 1.59375 -7.578125 1.59375 -9.390625 C 1.59375 -11.515625 2.039062 -13.351562 2.9375 -14.90625 C 3.84375 -16.46875 5.054688 -17.660156 6.578125 -18.484375 C 8.109375 -19.304688 9.785156 -19.71875 11.609375 -19.71875 C 12.703125 -19.71875 13.734375 -19.585938 14.703125 -19.328125 C 15.671875 -19.066406 16.546875 -18.722656 17.328125 -18.296875 L 16.453125 -15.890625 C 15.878906 -16.210938 15.15625 -16.492188 14.28125 -16.734375 C 13.414062 -16.984375 12.628906 -17.109375 11.921875 -17.109375 C 10.410156 -17.109375 9.070312 -16.800781 7.90625 -16.1875 C 6.75 -15.570312 5.859375 -14.695312 5.234375 -13.5625 C 4.609375 -12.4375 4.296875 -11.117188 4.296875 -9.609375 C 4.296875 -8.203125 4.609375 -6.945312 5.234375 -5.84375 C 5.859375 -4.75 6.75 -3.898438 7.90625 -3.296875 C 9.0625 -2.703125 10.375 -2.40625 11.84375 -2.40625 C 12.53125 -2.40625 13.195312 -2.472656 13.84375 -2.609375 C 14.488281 -2.742188 15.03125 -2.9375 15.46875 -3.1875 L 15.46875 -7.046875 L 11.578125 -7.046875 L 11.578125 -9.546875 L 18.109375 -9.546875 Z M 18.109375 -1.671875 "/></g></g></g><g fill="#ffffff" fill-opacity="1"><g transform="translate(323.498524, 203.352845)"><g><path d="M 13.875 0 L 8.796875 -7.796875 L 4.15625 0 L 0.921875 0 L 7.34375 -10.0625 L 1.1875 -19.515625 L 4.5 -19.515625 L 9.359375 -12.0625 L 13.78125 -19.515625 L 16.953125 -19.515625 L 10.765625 -9.875 L 17.21875 0 Z M 13.875 0 "/></g></g></g></svg>